<svg xmlns="http://www.w3.org/2000/svg" width="24" height="24" viewBox="0 0 24 24">
  <path fill="#231F20" fill-rule="evenodd" d="M19.7108,10.0472 L11.9998,6.0002 L11.9998,2.0002 C11.9998,0.8952 11.1048,0.0002 9.9998,0.0002 C8.8958,0.0002 7.9998,0.8952 7.9998,2.0002 L7.9998,6.0002 L0.2888,10.0472 C0.1178,10.1342 -0.0002,10.3022 -0.0002,10.5002 L-0.0002,12.5002 C-0.0002,12.7762 0.2238,13.0002 0.4998,13.0002 C0.5428,13.0002 0.5808,12.9852 0.6198,12.9752 L0.6298,12.9832 L7.9998,11.0002 L7.9998,15.7092 L5.2138,18.0912 L5.2038,18.1072 C5.0838,18.1982 4.9998,18.3372 4.9998,18.5002 L4.9998,19.5002 C4.9998,19.7762 5.2238,20.0002 5.4998,20.0002 C5.5748,20.0002 5.6448,19.9802 5.7088,19.9512 L9.9998,18.0002 L14.2888,19.9532 C14.3558,19.9802 14.4248,20.0002 14.4998,20.0002 C14.7768,20.0002 14.9998,19.7762 14.9998,19.5002 L14.9998,18.5002 C14.9998,18.3372 14.9168,18.1982 14.7958,18.1072 L14.7868,18.0912 L11.9998,15.7092 L11.9998,11.0002 L19.3708,12.9832 L19.3798,12.9752 C19.4198,12.9852 19.4568,13.0002 19.4998,13.0002 C19.7768,13.0002 19.9998,12.7762 19.9998,12.5002 L19.9998,10.5002 C19.9998,10.3022 19.8828,10.1342 19.7158,10.0532 L19.7108,10.0472 Z" transform="translate(2 2)"/>
</svg>
