<svg xmlns="http://www.w3.org/2000/svg" width="24" height="24" viewBox="0 0 24 24">
  <path fill-rule="evenodd" d="M9,17.0000156 L7,17.0000156 L7,19.0000156 C7,19.5523004 6.55228475,20.0000156 6,20.0000156 C5.44771525,20.0000156 5,19.5523004 5,19.0000156 L5,17.0000156 C3.8954305,17.0000156 3,16.1045851 3,15.0000156 L3,7.00001564 L13,7.00001564 L13,15.0000156 C13,16.1045851 12.1045695,17.0000156 11,17.0000156 L11,19.0000156 C11,19.5523004 10.5522847,20.0000156 10,20.0000156 C9.44771525,20.0000156 9,19.5523004 9,19.0000156 L9,17.0000156 Z M5.23280764,1.83492113 C6.02520123,1.3074203 6.97670151,1.00001564 8,1.00001564 C9.02329849,1.00001564 9.97479877,1.3074203 10.7671924,1.83492113 L12.1123987,0.184159247 C12.2868414,-0.0299070197 12.6017901,-0.0620282932 12.8158564,0.112414375 C13.0299227,0.286857043 13.0620439,0.601805763 12.8876013,0.815872031 L11.5402778,2.46923193 C12.4423116,3.37367614 13.0000156,4.62171834 13.0000156,6.00001564 L2.99998436,6.00001564 C2.99998436,4.62171834 3.55768838,3.37367614 4.45972223,2.46923193 L3.11239874,0.815872031 C2.93795607,0.601805763 2.97007734,0.286857043 3.18414361,0.112414375 C3.39820988,-0.0620282932 3.7131586,-0.0299070197 3.88760126,0.184159247 L5.23280764,1.83492113 L5.23280764,1.83492113 Z M15,7.00001564 C15.5522847,7.00001564 16,7.44773089 16,8.00001564 L16,12.0000156 C16,12.5523004 15.5522847,13.0000156 15,13.0000156 C14.4477153,13.0000156 14,12.5523004 14,12.0000156 L14,8.00001564 C14,7.44773089 14.4477153,7.00001564 15,7.00001564 Z M1,7.00001564 C1.55228475,7.00001564 2,7.44773089 2,8.00001564 L2,12.0000156 C2,12.5523004 1.55228475,13.0000156 1,13.0000156 C0.44771525,13.0000156 0,12.5523004 0,12.0000156 L0,8.00001564 C0,7.44773089 0.44771525,7.00001564 1,7.00001564 Z M6.5,4 C6.77614237,4 7,3.77614237 7,3.5 C7,3.22385763 6.77614237,3 6.5,3 C6.22385763,3 6,3.22385763 6,3.5 C6,3.77614237 6.22385763,4 6.5,4 Z M9.5,4 C9.77614237,4 10,3.77614237 10,3.5 C10,3.22385763 9.77614237,3 9.5,3 C9.22385763,3 9,3.22385763 9,3.5 C9,3.77614237 9.22385763,4 9.5,4 Z" transform="translate(4 2)"/>
</svg>
