<svg xmlns="http://www.w3.org/2000/svg" width="24" height="24" viewBox="0 0 24 24">
  <path d="M7.41421356,9 L15,9 C15.5522847,9 16,9.44771525 16,10 C16,10.5522847 15.5522847,11 15,11 L7.41421356,11 L9.70710678,13.2928932 C10.0976311,13.6834175 10.0976311,14.3165825 9.70710678,14.7071068 C9.31658249,15.0976311 8.68341751,15.0976311 8.29289322,14.7071068 L4.29289322,10.7071068 C3.90236893,10.3165825 3.90236893,9.68341751 4.29289322,9.29289322 L8.29289322,5.29289322 C8.68341751,4.90236893 9.31658249,4.90236893 9.70710678,5.29289322 C10.0976311,5.68341751 10.0976311,6.31658249 9.70710678,6.70710678 L7.41421356,9 L7.41421356,9 Z M10,20 C4.4771525,20 0,15.5228475 0,10 C0,4.4771525 4.4771525,0 10,0 C15.5228475,0 20,4.4771525 20,10 C20,15.5228475 15.5228475,20 10,20 Z M10,18 C14.418278,18 18,14.418278 18,10 C18,5.581722 14.418278,2 10,2 C5.581722,2 2,5.581722 2,10 C2,14.418278 5.581722,18 10,18 Z" transform="translate(2 2)"/>
</svg>
