<svg xmlns="http://www.w3.org/2000/svg" width="24" height="24" viewBox="0 0 24 24">
  <path d="M0,17 L0,7 C0,6.44771525 0.44771525,6 1,6 C1.55228475,6 2,6.44771525 2,7 L2,14.5857864 L16.2928932,0.292893219 C16.6834175,-0.0976310729 17.3165825,-0.0976310729 17.7071068,0.292893219 C18.0976311,0.683417511 18.0976311,1.31658249 17.7071068,1.70710678 L3.41421356,16 L11,16 C11.5522847,16 12,16.4477153 12,17 C12,17.5522847 11.5522847,18 11,18 L1,18 C0.744077682,18 0.488155365,17.9023689 0.292893219,17.7071068 C0.0976310729,17.5118446 -8.8817842e-16,17.2559223 0,17 Z" transform="translate(3 3)"/>
</svg>
