<svg xmlns="http://www.w3.org/2000/svg" width="24" height="24" viewBox="0 0 24 24">
  <path fill="#010202" fill-rule="evenodd" d="M18,7 C18,6.448 17.552,6 17,6 C16.448,6 16,6.448 16,7 L16,14.586 L1.707,0.293 C1.316,-0.098 0.684,-0.098 0.293,0.293 C-0.098,0.684 -0.098,1.316 0.293,1.707 L14.586,16 L7,16 C6.448,16 6,16.448 6,17 C6,17.552 6.448,18 7,18 L17,18 C17.13,18 17.26,17.974 17.382,17.923 C17.627,17.821 17.821,17.626 17.923,17.382 C17.974,17.26 18,17.13 18,17 L18,7 Z" transform="translate(3 3)"/>
</svg>
