<svg xmlns="http://www.w3.org/2000/svg" width="24" height="24" viewBox="0 0 24 24">
  <path d="M16.5857864,9 L1,9 C0.44771525,9 7.10542736e-15,8.55228475 7.10542736e-15,8 C7.10542736e-15,7.44771525 0.44771525,7 1,7 L16.5857864,7 L11.2928932,1.70710678 C10.9023689,1.31658249 10.9023689,0.683417511 11.2928932,0.292893219 C11.6834175,-0.0976310729 12.3165825,-0.0976310729 12.7071068,0.292893219 L19.7071068,7.29289322 C19.8880712,7.47385763 20,7.72385763 20,8 C20,8.27614237 19.8880712,8.52614237 19.7071068,8.70710678 L12.7071068,15.7071068 C12.3165825,16.0976311 11.6834175,16.0976311 11.2928932,15.7071068 C10.9023689,15.3165825 10.9023689,14.6834175 11.2928932,14.2928932 L16.5857864,9 Z" transform="translate(2 4)"/>
</svg>
