<svg xmlns="http://www.w3.org/2000/svg" width="24" height="24" viewBox="0 0 24 24">
  <path d="M8.70710678,19.7071068 C8.52614237,19.8880712 8.27614237,20 8,20 C7.72385763,20 7.47385763,19.8880712 7.29289322,19.7071068 L0.292893219,12.7071068 C-0.0976310729,12.3165825 -0.0976310729,11.6834175 0.292893219,11.2928932 C0.683417511,10.9023689 1.31658249,10.9023689 1.70710678,11.2928932 L7,16.5857864 L7,1 C7,0.44771525 7.44771525,0 8,0 C8.55228475,0 9,0.44771525 9,1 L9,16.5857864 L14.2928932,11.2928932 C14.6834175,10.9023689 15.3165825,10.9023689 15.7071068,11.2928932 C16.0976311,11.6834175 16.0976311,12.3165825 15.7071068,12.7071068 L8.70710678,19.7071068 Z" transform="translate(4 2)"/>
</svg>
