<svg xmlns="http://www.w3.org/2000/svg" width="24" height="24" viewBox="0 0 24 24">
  <path fill-rule="evenodd" d="M14.70725,0.29325 L19.70725,5.29325 C20.09825,5.68425 20.09825,6.31625 19.70725,6.70725 C19.51225,6.90225 19.25625,7.00025 19.00025,7.00025 L1.00025,7.00025 C0.44825,7.00025 0.00025,6.55325 0.00025,6.00025 C0.00025,5.44725 0.44825,5.00025 1.00025,5.00025 L16.58625,5.00025 L13.29325,1.70725 C12.90225,1.31625 12.90225,0.68425 13.29325,0.29325 C13.68425,-0.09775 14.31625,-0.09775 14.70725,0.29325 Z M19.00025,9.00025 C19.55225,9.00025 20.00025,9.44725 20.00025,10.00025 C20.00025,10.55325 19.55225,11.00025 19.00025,11.00025 L3.41425,11.00025 L6.70725,14.29325 C7.09825,14.68425 7.09825,15.31625 6.70725,15.70725 C6.31625,16.09825 5.68425,16.09825 5.29325,15.70725 L0.29325,10.70725 C-0.09775,10.31625 -0.09775,9.68425 0.29325,9.29325 C0.48825,9.09825 0.74425,9.00025 1.00025,9.00025 L19.00025,9.00025 Z" transform="translate(2 4)"/>
</svg>
