<svg xmlns="http://www.w3.org/2000/svg" width="24" height="24" viewBox="0 0 24 24">
  <path fill-rule="evenodd" d="M0.29325,5.29325 L5.29325,0.29325 C5.68425,-0.09775 6.31625,-0.09775 6.70725,0.29325 C6.90225,0.48825 7.00025,0.74425 7.00025,1.00025 L7.00025,19.00025 C7.00025,19.55225 6.55325,20.00025 6.00025,20.00025 C5.44725,20.00025 5.00025,19.55225 5.00025,19.00025 L5.00025,3.41425 L1.70725,6.70725 C1.31625,7.09825 0.68425,7.09825 0.29325,6.70725 C-0.09775,6.31625 -0.09775,5.68425 0.29325,5.29325 Z M9.00025,1.00025 C9.00025,0.44825 9.44725,0.00025 10.00025,0.00025 C10.55325,0.00025 11.00025,0.44825 11.00025,1.00025 L11.00025,16.58625 L14.29325,13.29325 C14.68425,12.90225 15.31625,12.90225 15.70725,13.29325 C16.09825,13.68425 16.09825,14.31625 15.70725,14.70725 L10.70725,19.70725 C10.31625,20.09825 9.68425,20.09825 9.29325,19.70725 C9.09825,19.51225 9.00025,19.25625 9.00025,19.00025 L9.00025,1.00025 Z" transform="translate(4 2)"/>
</svg>
