<svg xmlns="http://www.w3.org/2000/svg" width="24" height="24" viewBox="0 0 24 24">
  <path d="M7.29289322,0.292893219 C7.47385763,0.111928813 7.72385763,0 8,0 C8.27614237,0 8.52614237,0.111928813 8.70710678,0.292893219 L15.7071068,7.29289322 C16.0976311,7.68341751 16.0976311,8.31658249 15.7071068,8.70710678 C15.3165825,9.09763107 14.6834175,9.09763107 14.2928932,8.70710678 L9,3.41421356 L9,19 C9,19.5522847 8.55228475,20 8,20 C7.44771525,20 7,19.5522847 7,19 L7,3.41421356 L1.70710678,8.70710678 C1.31658249,9.09763107 0.683417511,9.09763107 0.292893219,8.70710678 C-0.0976310729,8.31658249 -0.0976310729,7.68341751 0.292893219,7.29289322 L7.29289322,0.292893219 Z" transform="translate(4 2)"/>
</svg>
