<svg xmlns="http://www.w3.org/2000/svg" width="24" height="24" viewBox="0 0 24 24">
  <path d="M0,1 C-8.8817842e-16,0.744077682 0.0976310729,0.488155365 0.292893219,0.292893219 C0.488155365,0.0976310729 0.744077682,-3.10862447e-15 1,-3.55271368e-15 L11,-2.48689958e-14 C11.5522847,-2.57571742e-14 12,0.44771525 12,1 C12,1.55228475 11.5522847,2 11,2 L3.41421356,2 L17.7071068,16.2928932 C18.0976311,16.6834175 18.0976311,17.3165825 17.7071068,17.7071068 C17.3165825,18.0976311 16.6834175,18.0976311 16.2928932,17.7071068 L2,3.41421356 L2,11 C2,11.5522847 1.55228475,12 1,12 C0.44771525,12 0,11.5522847 0,11 L0,1 Z" transform="translate(3 3)"/>
</svg>
