<svg xmlns="http://www.w3.org/2000/svg" width="24" height="24" viewBox="0 0 24 24">
  <path fill-rule="evenodd" d="M10,2 C9.447,2 9,2.448 9,3 L9,14.5 C9,16.43 7.43,18 5.5,18 C3.57,18 2,16.43 2,14.5 L2,4 C2,2.897 2.897,2 4,2 C5.103,2 6,2.897 6,4 L6,14.5 C6,14.775 5.776,15 5.5,15 C5.224,15 5,14.775 5,14.5 L5,4 C5,3.448 4.552,3 4,3 C3.448,3 3,3.448 3,4 L3,14.5 C3,15.879 4.122,17 5.5,17 C6.878,17 8,15.879 8,14.5 L8,4 C8,1.794 6.206,0 4,0 C1.794,0 0,1.794 0,4 L0,14.5 C0,17.532 2.467,20 5.5,20 C8.532,20 11,17.532 11,14.5 L11,3 C11,2.448 10.553,2 10,2" transform="translate(6 2)"/>
</svg>
