<svg xmlns="http://www.w3.org/2000/svg" width="24" height="24" viewBox="0 0 24 24">
  <path d="M1,15 L17,15 C17.5522847,15 18,15.4477153 18,16 L18,17 C18,17.5522847 17.5522847,18 17,18 L1,18 C0.44771525,18 6.76353751e-17,17.5522847 0,17 L0,16 C-6.76353751e-17,15.4477153 0.44771525,15 1,15 Z M4,7 C4.55228475,7 5,7.44771525 5,8 L5,13 C5,13.5522847 4.55228475,14 4,14 C3.44771525,14 3,13.5522847 3,13 L3,8 C3,7.44771525 3.44771525,7 4,7 Z M9,7 C9.55228475,7 10,7.44771525 10,8 L10,13 C10,13.5522847 9.55228475,14 9,14 C8.44771525,14 8,13.5522847 8,13 L8,8 C8,7.44771525 8.44771525,7 9,7 Z M14,7 C14.5522847,7 15,7.44771525 15,8 L15,13 C15,13.5522847 14.5522847,14 14,14 C13.4477153,14 13,13.5522847 13,13 L13,8 C13,7.44771525 13.4477153,7 14,7 Z M1,6 C0.44771525,6 -3.4968974e-14,5.55228475 -3.55271368e-14,5 L-3.55271368e-14,4.64199632 C-3.52276192e-14,4.25083503 0.228069411,3.89558469 0.583729157,3.73275565 L8.58372916,0.0701755737 C8.84805091,-0.0508368741 9.15194909,-0.0508368741 9.41627084,0.0701755737 L17.4162708,3.73275565 C17.7719306,3.89558469 18,4.25083503 18,4.64199632 L18,5 C18,5.55228475 17.5522847,6 17,6 L1,6 Z" transform="translate(3 3)"/>
</svg>
