<svg xmlns="http://www.w3.org/2000/svg" width="24" height="24" viewBox="0 0 24 24">
  <path fill="#040505" fill-rule="evenodd" d="M14,0 C15.104,0 16,0.896 16,2 L16,20 L14,18 L12,20 L10,18 L8,20 L6,18 L4,20 L2,18 L0,20 L0,2 C0,0.896 0.896,0 2,0 L14,0 Z M3,4 L13,4 C13.5522847,4 14,3.55228475 14,3 C14,2.44771525 13.5522847,2 13,2 L3,2 C2.44771525,2 2,2.44771525 2,3 C2,3.55228475 2.44771525,4 3,4 Z M3,8 L13,8 C13.5522847,8 14,7.55228475 14,7 C14,6.44771525 13.5522847,6 13,6 L3,6 C2.44771525,6 2,6.44771525 2,7 C2,7.55228475 2.44771525,8 3,8 Z M3,12 L13,12 C13.5522847,12 14,11.5522847 14,11 C14,10.4477153 13.5522847,10 13,10 L3,10 C2.44771525,10 2,10.4477153 2,11 C2,11.5522847 2.44771525,12 3,12 Z M3,16 L7,16 C7.55228475,16 8,15.5522847 8,15 C8,14.4477153 7.55228475,14 7,14 L3,14 C2.44771525,14 2,14.4477153 2,15 C2,15.5522847 2.44771525,16 3,16 Z" transform="translate(4 2)"/>
</svg>
