<svg xmlns="http://www.w3.org/2000/svg" width="24" height="24" viewBox="0 0 24 24">
  <path d="M12,14 C11.4477153,14 11,14.4477153 11,15 L18.5,15 C18.7761424,15 19,14.7761424 19,14.5 L19,2.5 C19,2.22385763 19.2238576,2 19.5,2 C19.7761424,2 20,2.22385763 20,2.5 L20,14.5 C20,15.3284271 19.3284271,16 18.5,16 L1.5,16 C0.671572875,16 -1.59039448e-14,15.3284271 -1.59872116e-14,14.5 L-1.59872116e-14,2.5 C-1.59872116e-14,2.22385763 0.223857625,2 0.5,2 C0.776142375,2 1,2.22385763 1,2.5 L1,14.5 C1,14.7761424 1.22385763,15 1.5,15 L9,15 C9,14.4477153 8.55228475,14 8,14 L2,14 L2,0 L8,0 C8.76835444,-1.02971615e-16 9.46924351,0.288853568 10,0.763893493 C10.5307565,0.288853569 11.2316456,1.54457422e-16 12,0 L18,0 L18,14 L12,14 L12,14 Z M4.5,2 C4.22385763,2 4,2.22385763 4,2.5 C4,2.77614237 4.22385763,3 4.5,3 L8.5,3 C8.77614237,3 9,2.77614237 9,2.5 C9,2.22385763 8.77614237,2 8.5,2 L4.5,2 Z M4.5,5 C4.22385763,5 4,5.22385763 4,5.5 C4,5.77614237 4.22385763,6 4.5,6 L8.5,6 C8.77614237,6 9,5.77614237 9,5.5 C9,5.22385763 8.77614237,5 8.5,5 L4.5,5 Z M4.5,8 C4.22385763,8 4,8.22385763 4,8.5 C4,8.77614237 4.22385763,9 4.5,9 L8.5,9 C8.77614237,9 9,8.77614237 9,8.5 C9,8.22385763 8.77614237,8 8.5,8 L4.5,8 Z M11.5,2 C11.2238576,2 11,2.22385763 11,2.5 C11,2.77614237 11.2238576,3 11.5,3 L15.5,3 C15.7761424,3 16,2.77614237 16,2.5 C16,2.22385763 15.7761424,2 15.5,2 L11.5,2 Z M11.5,5 C11.2238576,5 11,5.22385763 11,5.5 C11,5.77614237 11.2238576,6 11.5,6 L15.5,6 C15.7761424,6 16,5.77614237 16,5.5 C16,5.22385763 15.7761424,5 15.5,5 L11.5,5 Z M11.5,8 C11.2238576,8 11,8.22385763 11,8.5 C11,8.77614237 11.2238576,9 11.5,9 L15.5,9 C15.7761424,9 16,8.77614237 16,8.5 C16,8.22385763 15.7761424,8 15.5,8 L11.5,8 Z M4.5,11 C4.22385763,11 4,11.2238576 4,11.5 C4,11.7761424 4.22385763,12 4.5,12 L8.5,12 C8.77614237,12 9,11.7761424 9,11.5 C9,11.2238576 8.77614237,11 8.5,11 L4.5,11 Z M11.5,11 C11.2238576,11 11,11.2238576 11,11.5 C11,11.7761424 11.2238576,12 11.5,12 L15.5,12 C15.7761424,12 16,11.7761424 16,11.5 C16,11.2238576 15.7761424,11 15.5,11 L11.5,11 Z" transform="translate(2 4)"/>
</svg>
