<svg xmlns="http://www.w3.org/2000/svg" width="24" height="24" viewBox="0 0 24 24">
  <path fill-rule="evenodd" d="M8,12 L8,9 C8,8.44771525 8.44771525,8 9,8 C9.55228475,8 10,8.44771525 10,9 L10,12 L16,12 C17.1045695,12 18,12.8954305 18,14 L18,16 C18,17.1045695 17.1045695,18 16,18 L2,18 C0.8954305,18 1.3527075e-16,17.1045695 0,16 L0,14 C-1.3527075e-16,12.8954305 0.8954305,12 2,12 L8,12 Z M3,16 C3.55228475,16 4,15.5522847 4,15 C4,14.4477153 3.55228475,14 3,14 C2.44771525,14 2,14.4477153 2,15 C2,15.5522847 2.44771525,16 3,16 Z M6,16 C6.55228475,16 7,15.5522847 7,15 C7,14.4477153 6.55228475,14 6,14 C5.44771525,14 5,14.4477153 5,15 C5,15.5522847 5.44771525,16 6,16 Z M9,16 C9.55228475,16 10,15.5522847 10,15 C10,14.4477153 9.55228475,14 9,14 C8.44771525,14 8,14.4477153 8,15 C8,15.5522847 8.44771525,16 9,16 Z M15.3631068,2.63589322 C15.7536311,3.02641751 15.7536311,3.65958249 15.3631068,4.05010678 C14.9725825,4.44063107 14.3394175,4.44063107 13.9488932,4.05010678 C11.2154175,1.31663107 6.78358249,1.31663107 4.05010678,4.05010678 C3.65958249,4.44063107 3.02641751,4.44063107 2.63589322,4.05010678 C2.24536893,3.65958249 2.24536893,3.02641751 2.63589322,2.63589322 C6.15041751,-0.878631073 11.8485825,-0.878631073 15.3631068,2.63589322 Z M12.5351068,5.46439322 C12.9256311,5.85491751 12.9256311,6.48808249 12.5351068,6.87860678 C12.1445825,7.26913107 11.5114175,7.26913107 11.1208932,6.87860678 C9.94941751,5.70713107 8.05008249,5.70713107 6.87860678,6.87860678 C6.48808249,7.26913107 5.85491751,7.26913107 5.46439322,6.87860678 C5.07386893,6.48808249 5.07386893,5.85491751 5.46439322,5.46439322 C7.41691751,3.51186893 10.5825825,3.51186893 12.5351068,5.46439322 Z" transform="translate(3 3)"/>
</svg>
