<svg xmlns="http://www.w3.org/2000/svg" width="24" height="24" viewBox="0 0 24 24">
  <path d="M4,4 L4,3 C4,1.34314575 5.34314575,1.22124533e-15 7,8.8817842e-16 L11,8.8817842e-16 C12.6568542,6.66133815e-16 14,1.34314575 14,3 L14,4 L16,4 C17.1045695,4 18,4.8954305 18,6 L18,8 L11,8 C11,6.8954305 10.1045695,6 9,6 C7.8954305,6 7,6.8954305 7,8 L0,8 L0,6 C-1.3527075e-16,4.8954305 0.8954305,4 2,4 L4,4 Z M6,4 L12,4 L12,3 C12,2.44771525 11.5522847,2 11,2 L7,2 C6.44771525,2 6,2.44771525 6,3 L6,4 Z M18,9 L18,16 C18,17.1045695 17.1045695,18 16,18 L2,18 C0.8954305,18 1.3527075e-16,17.1045695 0,16 L0,9 L7,9 C7,10.1045695 7.8954305,11 9,11 C10.1045695,11 11,10.1045695 11,9 L18,9 Z M9,7 C9.55228475,7 10,7.44771525 10,8 L10,9 C10,9.55228475 9.55228475,10 9,10 C8.44771525,10 8,9.55228475 8,9 L8,8 C8,7.44771525 8.44771525,7 9,7 Z" transform="translate(3 3)"/>
</svg>
