<svg xmlns="http://www.w3.org/2000/svg" width="24" height="24" viewBox="0 0 24 24">
  <path d="M2,0 L14,0 C15.1045695,-2.02906125e-16 16,0.8954305 16,2 L16,18 C16,19.1045695 15.1045695,20 14,20 L2,20 C0.8954305,20 1.3527075e-16,19.1045695 0,18 L0,2 C-1.3527075e-16,0.8954305 0.8954305,2.02906125e-16 2,0 Z M3,2 C2.44771525,2 2,2.44771525 2,3 L2,5 C2,5.55228475 2.44771525,6 3,6 L13,6 C13.5522847,6 14,5.55228475 14,5 L14,3 C14,2.44771525 13.5522847,2 13,2 L3,2 Z M4,10 C4.55228475,10 5,9.55228475 5,9 C5,8.44771525 4.55228475,8 4,8 C3.44771525,8 3,8.44771525 3,9 C3,9.55228475 3.44771525,10 4,10 Z M8,10 C8.55228475,10 9,9.55228475 9,9 C9,8.44771525 8.55228475,8 8,8 C7.44771525,8 7,8.44771525 7,9 C7,9.55228475 7.44771525,10 8,10 Z M12,10 C12.5522847,10 13,9.55228475 13,9 C13,8.44771525 12.5522847,8 12,8 C11.4477153,8 11,8.44771525 11,9 C11,9.55228475 11.4477153,10 12,10 Z M4,14 C4.55228475,14 5,13.5522847 5,13 C5,12.4477153 4.55228475,12 4,12 C3.44771525,12 3,12.4477153 3,13 C3,13.5522847 3.44771525,14 4,14 Z M8,14 C8.55228475,14 9,13.5522847 9,13 C9,12.4477153 8.55228475,12 8,12 C7.44771525,12 7,12.4477153 7,13 C7,13.5522847 7.44771525,14 8,14 Z M12,14 C12.5522847,14 13,13.5522847 13,13 C13,12.4477153 12.5522847,12 12,12 C11.4477153,12 11,12.4477153 11,13 C11,13.5522847 11.4477153,14 12,14 Z M4,18 C4.55228475,18 5,17.5522847 5,17 C5,16.4477153 4.55228475,16 4,16 C3.44771525,16 3,16.4477153 3,17 C3,17.5522847 3.44771525,18 4,18 Z M8,18 C8.55228475,18 9,17.5522847 9,17 C9,16.4477153 8.55228475,16 8,16 C7.44771525,16 7,16.4477153 7,17 C7,17.5522847 7.44771525,18 8,18 Z M12,18 C12.5522847,18 13,17.5522847 13,17 C13,16.4477153 12.5522847,16 12,16 C11.4477153,16 11,16.4477153 11,17 C11,17.5522847 11.4477153,18 12,18 Z" transform="translate(4 2)"/>
</svg>
