<svg xmlns="http://www.w3.org/2000/svg" width="24" height="24" viewBox="0 0 24 24">
  <path d="M11,2 L11,3 C11,4.1045695 11.8954305,5 13,5 C14.1045695,5 15,4.1045695 15,3 L15,2 C16.6568542,2 18,3.34314575 18,5 L18,17 C18,18.6568542 16.6568542,20 15,20 L3,20 C1.34314575,20 0,18.6568542 0,17 L0,5 C0,3.34314575 1.34314575,2 3,2 L3,3 C3,4.1045695 3.8954305,5 5,5 C6.1045695,5 7,4.1045695 7,3 L7,2 L11,2 Z M3,9 C2.44771525,9 2,9.44771525 2,10 L2,17 C2,17.5522847 2.44771525,18 3,18 L15,18 C15.5522847,18 16,17.5522847 16,17 L16,10 C16,9.44771525 15.5522847,9 15,9 L3,9 Z M4,1 C4,0.44771525 4.44771525,0 5,0 C5.55228475,0 6,0.44771525 6,1 L6,3 C6,3.55228475 5.55228475,4 5,4 C4.44771525,4 4,3.55228475 4,3 L4,1 Z M12,1 C12,0.44771525 12.4477153,0 13,0 C13.5522847,0 14,0.44771525 14,1 L14,3 C14,3.55228475 13.5522847,4 13,4 C12.4477153,4 12,3.55228475 12,3 L12,1 Z" transform="translate(3 2)"/>
</svg>
