<svg xmlns="http://www.w3.org/2000/svg" width="24" height="24" viewBox="0 0 24 24">
  <path fill-rule="evenodd" d="M0,3.99406028 C0,2.8927712 0.893899798,2 2.0048815,2 L5,2 L6,0 L14,0 L15,2 L17.9951185,2 C19.102384,2 20,2.89451376 20,3.99406028 L20,16.0059397 C20,17.1072288 19.1017876,18 18.0092049,18 L1.99079514,18 C0.891309342,18 0,17.1054862 0,16.0059397 L0,3.99406028 Z M10,15 C12.7614237,15 15,12.7614237 15,10 C15,7.23857625 12.7614237,5 10,5 C7.23857625,5 5,7.23857625 5,10 C5,12.7614237 7.23857625,15 10,15 Z M10,13 C8.34314575,13 7,11.6568542 7,10 C7,8.34314575 8.34314575,7 10,7 C11.6568542,7 13,8.34314575 13,10 C13,11.6568542 11.6568542,13 10,13 Z" transform="translate(2 2)"/>
</svg>
