<svg xmlns="http://www.w3.org/2000/svg" width="24" height="24" viewBox="0 0 24 24">
  <path d="M1.29299104,6.12855571 L3.34784585,1.50513239 C3.73282381,0.638931972 4.71819511,0 5.67016077,0 L14.3298392,0 C15.2771964,0 16.2691049,0.643271537 16.6521542,1.50513239 L18.707009,6.12855571 C19.4626585,6.41417857 20,7.14433786 20,8 L20,12 C20,13.1045695 19.1045695,14 18,14 L18,14.5 C18,15.3284271 17.3284271,16 16.5,16 L15.5,16 C14.6715729,16 14,15.3284271 14,14.5 L14,14 L6,14 L6,14.5 C6,15.3284271 5.32842712,16 4.5,16 L3.5,16 C2.67157288,16 2,15.3284271 2,14.5 L2,14 C0.8954305,14 1.3527075e-16,13.1045695 0,12 L0,8 C-1.0478839e-16,7.14433786 0.537341547,6.41417857 1.29299104,6.12855571 L1.29299104,6.12855571 Z M5,11 C5.55228475,11 6,10.5522847 6,10 C6,9.44771525 5.55228475,9 5,9 C4.44771525,9 4,9.44771525 4,10 C4,10.5522847 4.44771525,11 5,11 Z M15,11 C15.5522847,11 16,10.5522847 16,10 C16,9.44771525 15.5522847,9 15,9 C14.4477153,9 14,9.44771525 14,10 C14,10.5522847 14.4477153,11 15,11 Z M16.461238,6 L14.8245311,2.31740932 C14.7627882,2.17848782 14.4875644,2 14.3298392,2 L5.67016077,2 C5.50777118,2 5.23911771,2.1741996 5.17546895,2.31740932 L3.53876198,6 L16.461238,6 Z" transform="translate(2 4)"/>
</svg>
