<svg xmlns="http://www.w3.org/2000/svg" width="24" height="24" viewBox="0 0 24 24">
  <path d="M2,0 L18,0 C19.1045695,-2.22044605e-16 20,0.8954305 20,2 L20,14 C20,15.1045695 19.1045695,16 18,16 L2,16 C0.8954305,16 1.11022302e-16,15.1045695 0,14 L0,2 C-2.22044605e-16,0.8954305 0.8954305,2.22044605e-16 2,0 Z M2,4 L2,6 L18,6 L18,4 L2,4 Z M3,10 C2.44771525,10 2,10.4477153 2,11 C2,11.5522847 2.44771525,12 3,12 L8,12 C8.55228475,12 9,11.5522847 9,11 C9,10.4477153 8.55228475,10 8,10 L3,10 Z M12,10 C11.4477153,10 11,10.4477153 11,11 C11,11.5522847 11.4477153,12 12,12 L13,12 C13.5522847,12 14,11.5522847 14,11 C14,10.4477153 13.5522847,10 13,10 L12,10 Z" transform="translate(2 4)"/>
</svg>
