<svg xmlns="http://www.w3.org/2000/svg" width="24" height="24" viewBox="0 0 24 24">
  <path d="M4.48782031,3 L19,3 C19.6505712,3 20.1279292,3.6113889 19.9701425,4.24253563 L18.4701425,10.2425356 C18.3588507,10.6877026 17.9588676,11 17.5,11 L6.33397416,11 L6.61663404,12.2248595 C6.72134122,12.6785906 7.12536926,13 7.59102524,13 L17,13 C17.5522847,13 18,13.4477153 18,14 C18,14.5522847 17.5522847,15 17,15 L7.59102524,15 C6.19405729,15 4.98197318,14.0357718 4.66785165,12.6745785 L2.20448738,2 L1,2 C0.44771525,2 0,1.55228475 0,1 C0,0.44771525 0.44771525,0 1,0 L2.20448738,2.22044605e-16 C3.13579934,0 3.94385542,0.642818808 4.15326977,1.55028099 L4.48782031,3 Z M7,20 C5.8954305,20 5,19.1045695 5,18 C5,16.8954305 5.8954305,16 7,16 C8.1045695,16 9,16.8954305 9,18 C9,19.1045695 8.1045695,20 7,20 Z M16,20 C14.8954305,20 14,19.1045695 14,18 C14,16.8954305 14.8954305,16 16,16 C17.1045695,16 18,16.8954305 18,18 C18,19.1045695 17.1045695,20 16,20 Z" transform="translate(2 2)"/>
</svg>
