<svg xmlns="http://www.w3.org/2000/svg" width="24" height="24" viewBox="0 0 24 24">
  <path d="M10,20 C4.4771525,20 0,15.5228475 0,10 C0,4.4771525 4.4771525,0 10,0 C15.5228475,0 20,4.4771525 20,10 C20,15.5228475 15.5228475,20 10,20 Z M8.49997824,12.0857647 L5.70710678,9.29289322 C5.31658249,8.90236893 4.68341751,8.90236893 4.29289322,9.29289322 C3.90236893,9.68341751 3.90236893,10.3165825 4.29289322,10.7071068 L7.79289322,14.2071068 C8.18342601,14.5976396 8.81660777,14.5976298 9.20712854,14.207085 L15.7071285,7.70668502 C16.0976408,7.31614872 16.0976213,6.68298374 15.707085,6.29247146 C15.3165487,5.90195919 14.6833837,5.90197867 14.2928715,6.29251498 L8.49997824,12.0857647 Z" transform="translate(2 2)"/>
</svg>
