<svg xmlns="http://www.w3.org/2000/svg" width="24" height="24" viewBox="0 0 24 24">
  <path d="M5.58578644,7 L-0.707106781,0.707106781 C-1.09763107,0.316582489 -1.09763107,-0.316582489 -0.707106781,-0.707106781 C-0.316582489,-1.09763107 0.316582489,-1.09763107 0.707106781,-0.707106781 L7,5.58578644 L13.2928932,-0.707106781 C13.6834175,-1.09763107 14.3165825,-1.09763107 14.7071068,-0.707106781 C15.0976311,-0.316582489 15.0976311,0.316582489 14.7071068,0.707106781 L8.41421356,7 L14.7071068,13.2928932 C15.0976311,13.6834175 15.0976311,14.3165825 14.7071068,14.7071068 C14.3165825,15.0976311 13.6834175,15.0976311 13.2928932,14.7071068 L7,8.41421356 L0.707106781,14.7071068 C0.316582489,15.0976311 -0.316582489,15.0976311 -0.707106781,14.7071068 C-1.09763107,14.3165825 -1.09763107,13.6834175 -0.707106781,13.2928932 L5.58578644,7 Z" transform="translate(5 5)"/>
</svg>
