<svg xmlns="http://www.w3.org/2000/svg" width="24" height="24" viewBox="0 0 24 24">
  <path d="M10,20 C4.4771525,20 0,15.5228475 0,10 C0,4.4771525 4.4771525,0 10,0 C15.5228475,0 20,4.4771525 20,10 C20,15.5228475 15.5228475,20 10,20 Z M8.58690663,10 L5.29301348,13.292773 C4.90242278,13.6832308 4.9023151,14.3163958 5.29277297,14.7069865 C5.68323084,15.0975772 6.31639581,15.0976849 6.70698652,14.707227 L10.0013608,11.4139731 L13.295735,14.707227 C13.6863257,15.0976849 14.3194907,15.0975772 14.7099486,14.7069865 C15.1004064,14.3163958 15.1002987,13.6832308 14.709708,13.292773 L11.4158149,10 L14.709708,6.70722703 C15.1002987,6.31676916 15.1004064,5.68360419 14.7099486,5.29301348 C14.3194907,4.90242278 13.6863257,4.9023151 13.295735,5.29277297 L10.0013608,8.58602689 L6.70698652,5.29277297 C6.31639581,4.9023151 5.68323084,4.90242278 5.29277297,5.29301348 C4.9023151,5.68360419 4.90242278,6.31676916 5.29301348,6.70722703 L8.58690663,10 Z" transform="translate(2 2)"/>
</svg>
