<svg xmlns="http://www.w3.org/2000/svg" width="24" height="24" viewBox="0 0 24 24">
  <path fill-rule="evenodd" d="M13,9 L17,9 C17.5522847,9 18,9.44771525 18,10 L18,17 C18,17.5522847 17.5522847,18 17,18 L13,18 C12.4477153,18 12,17.5522847 12,17 L12,10 C12,9.44771525 12.4477153,9 13,9 Z M1,0 L6,0 C6.55228475,-1.01453063e-16 7,0.44771525 7,1 L7,7 C7,7.55228475 6.55228475,8 6,8 L1,8 C0.44771525,8 6.76353751e-17,7.55228475 0,7 L0,1 C-6.76353751e-17,0.44771525 0.44771525,1.01453063e-16 1,0 Z M1,9 L10,9 C10.5522847,9 11,9.44771525 11,10 L11,17 C11,17.5522847 10.5522847,18 10,18 L1,18 C0.44771525,18 6.76353751e-17,17.5522847 0,17 L0,10 C-6.76353751e-17,9.44771525 0.44771525,9 1,9 Z M9,0 L17,0 C17.5522847,-1.01453063e-16 18,0.44771525 18,1 L18,7 C18,7.55228475 17.5522847,8 17,8 L9,8 C8.44771525,8 8,7.55228475 8,7 L8,1 C8,0.44771525 8.44771525,1.01453063e-16 9,0 Z" transform="translate(3 3)"/>
</svg>
