<svg xmlns="http://www.w3.org/2000/svg" width="24" height="24" viewBox="0 0 24 24">
  <path d="M11,10.5 L11,16 C11,18.209139 9.209139,20 7,20 C4.790861,20 3,18.209139 3,16 L3,10.5 C3,10.2238576 3.22385763,10 3.5,10 L5,10 L5,8 L9,8 L9,10 L10.5,10 C10.7761424,10 11,10.2238576 11,10.5 L11,10.5 Z M13.624695,2.21913119 C14.055957,2.56414074 14.1258784,3.19343311 13.7808688,3.62469505 C13.4358593,4.05595698 12.8065669,4.12587836 12.375305,3.78086881 C10.8904372,2.59297461 9.11151337,2 7,2 C4.88848663,2 3.10956279,2.59297461 1.62469505,3.78086881 C1.19343311,4.12587836 0.564140739,4.05595698 0.219131191,3.62469505 C-0.125878358,3.19343311 -0.0559569826,2.56414074 0.375304952,2.21913119 C2.22377054,0.740358719 4.4448467,-1.77635684e-15 7,-1.77635684e-15 C9.5551533,-1.77635684e-15 11.7762295,0.740358719 13.624695,2.21913119 Z M10.5952276,5.19644281 C11.0390199,5.52517791 11.1322923,6.15143517 10.8035572,6.59522755 C10.4748221,7.03901993 9.84856483,7.13229229 9.40477245,6.80355719 C8.67617164,6.26385289 7.88461297,6 7,6 C6.11538703,6 5.32382836,6.26385289 4.59522755,6.80355719 C4.15143517,7.13229229 3.52517791,7.03901993 3.19644281,6.59522755 C2.86770771,6.15143517 2.96098007,5.52517791 3.40477245,5.19644281 C4.47617164,4.40281378 5.68461297,4 7,4 C8.31538703,4 9.52382836,4.40281378 10.5952276,5.19644281 Z" transform="translate(5 2)"/>
</svg>
