<svg xmlns="http://www.w3.org/2000/svg" width="24" height="24" viewBox="0 0 24 24">
  <path d="M8,16 C7.72385763,16 7.47385763,15.8880712 7.29289322,15.7071068 L0.292893217,8.70710678 C0.111928812,8.52614237 -1.42108547e-14,8.27614237 -1.42108547e-14,8 C-1.42108547e-14,7.72385763 0.111928813,7.47385763 0.292893219,7.29289322 L7.29289322,0.292893219 C7.47385763,0.111928813 7.72385763,0 8,0 L18,0 C19.1045695,-2.02906125e-16 20,0.8954305 20,2 L20,14 C20,15.1045695 19.1045695,16 18,16 L8,16 L8,16 Z M10.5868264,8 L8.29305357,10.2927329 C7.90244074,10.6831686 7.90229717,11.3163336 8.29273291,11.7069464 C8.68316864,12.0975593 9.3163336,12.0977028 9.70694643,11.7072671 L12.0013608,9.41389301 L14.2957751,11.7072671 C14.6863879,12.0977028 15.3195529,12.0975593 15.7099886,11.7069464 C16.1004244,11.3163336 16.1002808,10.6831686 15.709668,10.2927329 L13.4158951,8 L15.709668,5.70726709 C16.1002808,5.31683136 16.1004244,4.6836664 15.7099886,4.29305357 C15.3195529,3.90244074 14.6863879,3.90229717 14.2957751,4.29273291 L12.0013608,6.58610699 L9.70694643,4.29273291 C9.3163336,3.90229717 8.68316864,3.90244074 8.29273291,4.29305357 C7.90229717,4.6836664 7.90244074,5.31683136 8.29305357,5.70726709 L10.5868264,8 Z" transform="translate(2 4)"/>
</svg>
