<svg xmlns="http://www.w3.org/2000/svg" width="24" height="24" viewBox="0 0 24 24">
  <path d="M4,2 L4,1 C4,0.44771525 4.44771525,1.01453063e-16 5,0 L11,0 C11.5522847,-1.01453063e-16 12,0.44771525 12,1 L12,2 L14,2 C15.1045695,2 16,2.8954305 16,4 L16,5 L0,5 L0,4 C-1.3527075e-16,2.8954305 0.8954305,2 2,2 L4,2 Z M1,6 L15,6 L14.132679,18.1424941 C14.0579211,19.1891049 13.1870389,20 12.1377616,20 L3.86223841,20 C2.81296107,20 1.94207892,19.1891049 1.86732101,18.1424941 L1,6 Z" transform="translate(4 2)"/>
</svg>
