<svg xmlns="http://www.w3.org/2000/svg" width="24" height="24" viewBox="0 0 24 24">
  <path fill="#010202" fill-rule="evenodd" d="M9.2729,15.687 C9.4549,15.88 9.7129,16 9.9999,16 C10.2869,16 10.5449,15.88 10.7269,15.687 L15.6869,10.727 C15.8789,10.545 15.9999,10.287 15.9999,10 C15.9999,9.447 15.5529,9 14.9999,9 L11.9999,9 L11.9999,1 C11.9999,0.448 11.5519,0 10.9999,0 L8.9999,0 C8.4479,0 7.9999,0.448 7.9999,1 L7.9999,9 L4.9999,9 C4.4469,9 3.9999,9.447 3.9999,10 C3.9999,10.287 4.1199,10.545 4.3129,10.727 L9.2729,15.687 Z M19.9999,13 L19.9999,17 C19.9999,18.657 18.6569,20 16.9999,20 L2.9999,20 C1.3429,20 -0.0001,18.657 -0.0001,17 L-0.0001,13 C-0.0001,12.448 0.4479,12 0.9999,12 C1.5519,12 1.9999,12.448 1.9999,13 L1.9999,17 C1.9999,17.552 2.4479,18 2.9999,18 L16.9999,18 C17.5519,18 17.9999,17.552 17.9999,17 L17.9999,13 C17.9999,12.448 18.4479,12 18.9999,12 C19.5519,12 19.9999,12.448 19.9999,13 L19.9999,13 Z" transform="translate(2 2)"/>
</svg>
