<svg xmlns="http://www.w3.org/2000/svg" width="24" height="24" viewBox="0 0 24 24">
  <path d="M14.993685,2.42031502 C14.9978408,2.44626403 15,2.47287986 15,2.5 L15,13.5 C14.9999245,13.6969675 14.885575,13.8676022 14.7197411,13.9490389 C13.1647519,15.2304229 11.1722481,16 9,16 C4.02943725,16 7.37188088e-14,11.9705627 7.37188088e-14,7 C7.37188088e-14,4.82775186 0.769577114,2.83524808 2.05096111,1.2802589 C2.13239779,1.11442502 2.30303247,1.00007551 2.5,1.00007551 C2.63788582,1.00007551 2.76286695,1.05611372 2.85337661,1.14662339 L2.8535,1.1465 L14,12.293 L14,3.414 L13.707,3.707 C13.5257339,3.88777256 13.2757716,3.99984899 13,3.99984899 C12.4484567,3.99984899 12.000151,3.55154329 12.000151,3 C12.000151,2.72422836 12.1122274,2.47426611 12.2932468,2.29324677 L14.293,0.293 C14.4742661,0.112227436 14.7242284,0.000151011402 15,0.000151011402 C15.5515433,0.000151011402 15.999849,0.448456711 15.999849,1 C15.999849,1.27577164 15.8877726,1.52573389 15.7067532,1.70675323 L15.707,1.707 L14.993685,2.42031502 L14.993685,2.42031502 Z M0.453543234,19.9977869 C0.199489595,19.9742962 7.55057012e-05,19.760109 7.55057012e-05,19.5 C7.55057012e-05,19.2841662 0.137379812,19.0999513 0.329273349,19.0300704 L5.1465,16.1465 C5.3415,15.9515 5.6585,15.9515 5.8535,16.1465 L10.7499622,19.0670527 C10.8993016,19.1536366 10.9999245,19.3152324 10.9999245,19.5 C10.9999245,19.7757649 10.7757826,19.9999135 10.5000202,19.9999245 L0.453828062,20 L0.453543234,19.9977869 L0.453543234,19.9977869 Z" transform="translate(4 2)"/>
</svg>
