<svg xmlns="http://www.w3.org/2000/svg" width="24" height="24" viewBox="0 0 24 24">
  <path fill-rule="evenodd" d="M1.01454898,14.8313715 C1.05157802,14.6129223 1.15924846,14.4187784 1.31331017,14.2731898 L10.2731898,5.31331017 C10.4553584,5.12053954 10.7135472,5.00040101 11.00025,5.00040101 C11.2869528,5.00040101 11.5451416,5.12053954 11.7273102,5.31331017 L14.6871898,8.27318983 C14.8799605,8.45535838 15.000099,8.71354724 15.000099,9.00025 C15.000099,9.28695276 14.8799605,9.54514162 14.6871898,9.72731017 L5.72731017,18.6871898 C5.5817233,18.8412498 5.38758216,18.9489195 5.16913604,18.9859497 L0.631946946,19.9829775 C0.590044563,19.9943394 0.545942128,20.000401 0.500401011,20.000401 C0.223880502,20.000401 0.000401011402,19.7769215 0.000401011402,19.500401 C0.000401011402,19.4548852 0.00645591796,19.4108065 0.0178056283,19.3689249 L1.01454898,14.8313715 L1.01454898,14.8313715 Z M15.2731898,0.31331017 C15.4553584,0.120539541 15.7135472,0.000401011402 16.00025,0.000401011402 C16.2869528,0.000401011402 16.5451416,0.120539541 16.7273102,0.31331017 L19.6871898,3.27318983 C19.8799605,3.45535838 20.000099,3.71354724 20.000099,4.00025 C20.000099,4.28695276 19.8799605,4.54514162 19.6871898,4.72731017 L17.7273102,6.68718983 C17.5451416,6.87996046 17.2869528,7.00009899 17.00025,7.00009899 C16.7135472,7.00009899 16.4553584,6.87996046 16.2731898,6.68718983 L13.3133102,3.72731017 C13.1205395,3.54514162 13.000401,3.28695276 13.000401,3.00025 C13.000401,2.71354724 13.1205395,2.45535838 13.3133102,2.27318983 L15.2731898,0.31331017 L15.2731898,0.31331017 Z" transform="translate(2 2)"/>
</svg>
