<svg xmlns="http://www.w3.org/2000/svg" width="24" height="24" viewBox="0 0 24 24">
  <path d="M17,7.31337911 L17,13 C17,13 14.5,16 10,16 C5.5,16 3,13 3,13 L3,7.31337911 L9.17415356,9.8391692 C9.69834282,10.0536103 10.3016572,10.0536103 10.8258464,9.8391692 L17,7.31337911 L17,7.31337911 Z M19,5.572956 L19,10.5 C19,10.7761424 18.7761424,11 18.5,11 C18.2238576,11 18,10.7761424 18,10.5 L18,5.96184488 L10.3624463,8.93200467 C10.1293194,9.02266511 9.87068058,9.02266511 9.63755374,8.93200467 L0.637553739,5.43200467 C-0.212517913,5.10142125 -0.212517913,3.89857875 0.637553739,3.56799533 L9.63755374,0.0679953285 C9.87068058,-0.0226651095 10.1293194,-0.0226651095 10.3624463,0.0679953285 L19.3624463,3.56799533 C20.2125179,3.89857875 20.2125179,5.10142125 19.3624463,5.43200467 L19,5.572956 Z" transform="translate(2 4)"/>
</svg>
