<svg xmlns="http://www.w3.org/2000/svg" width="24" height="24" viewBox="0 0 24 24">
  <path fill="#231F20" fill-rule="evenodd" d="M13,9 C13,8.449 12.554,8.002 12.003,8 L12.003,8 L8,8 L11.707,1.707 C11.888,1.525 12,1.276 12,1 C12,0.448 11.552,0 11,0 L3,0 C2.447,0 2,0.448 2,1 L0,10.979 L0.004,10.982 C0.004,10.989 0,10.994 0,11 C0,11.552 0.447,12 1,12 L6,12 L3.067,19.25 C3.024,19.323 3,19.409 3,19.5 C3,19.775 3.225,20 3.5,20 C3.674,20 3.827,19.911 3.917,19.775 L12.707,9.708 C12.888,9.526 13,9.276 13,9" transform="translate(5 2)"/>
</svg>
