<svg xmlns="http://www.w3.org/2000/svg" width="24" height="24" viewBox="0 0 24 24">
  <path d="M2,0 L18,0 C19.1045695,-2.02906125e-16 20,0.8954305 20,2 L20,14 C20,15.1045695 19.1045695,16 18,16 L2,16 C0.8954305,16 1.3527075e-16,15.1045695 0,14 L0,2 C-1.3527075e-16,0.8954305 0.8954305,2.02906125e-16 2,0 Z M10,6.77109639 L3.58123819,2.18626653 C3.13182561,1.86525754 2.50727552,1.96934922 2.18626653,2.41876181 C1.86525754,2.86817439 1.96934922,3.49272448 2.41876181,3.81373347 L9.41876181,8.81373347 C9.76645933,9.06208884 10.2335407,9.06208884 10.5812382,8.81373347 L17.5812382,3.81373347 C18.0306508,3.49272448 18.1347425,2.86817439 17.8137335,2.41876181 C17.4927245,1.96934922 16.8681744,1.86525754 16.4187618,2.18626653 L10,6.77109639 Z" transform="translate(2 4)"/>
</svg>
