<svg xmlns="http://www.w3.org/2000/svg" width="24" height="24" viewBox="0 0 24 24">
  <path d="M13,8 L11,8 L11,2 L2,2 L2,18 L11,18 L11,12 L13,12 L13,18 C13,19.1045695 12.1045695,20 11,20 L2,20 C0.8954305,20 1.11022302e-16,19.1045695 0,18 L0,2 C-2.22044605e-16,0.8954305 0.8954305,2.22044605e-16 2,0 L11,0 C12.1045695,-2.22044605e-16 13,0.8954305 13,2 L13,8 Z M16.5857864,11 L5,11 C4.44771525,11 4,10.5522847 4,10 C4,9.44771525 4.44771525,9 5,9 L16.5857864,9 L14.2928932,6.70710678 C13.9023689,6.31658249 13.9023689,5.68341751 14.2928932,5.29289322 C14.6834175,4.90236893 15.3165825,4.90236893 15.7071068,5.29289322 L19.7071068,9.29289322 C19.8880712,9.47385763 20,9.72385763 20,10 C20,10.2761424 19.8880712,10.5261424 19.7071068,10.7071068 L15.7071068,14.7071068 C15.3165825,15.0976311 14.6834175,15.0976311 14.2928932,14.7071068 C13.9023689,14.3165825 13.9023689,13.6834175 14.2928932,13.2928932 L16.5857864,11 L16.5857864,11 Z" transform="translate(2 2)"/>
</svg>
