<svg xmlns="http://www.w3.org/2000/svg" width="24" height="24" viewBox="0 0 24 24">
  <path d="M18,16.5857864 L18,13 C18,12.4477153 18.4477153,12 19,12 C19.5522847,12 20,12.4477153 20,13 L20,19 C20,19.5522847 19.5522847,20 19,20 C18.4477153,20 18,19.5522847 18,19 L18,16.5857864 L19.7071068,18.2928932 C20.0976311,18.6834175 20.0976311,19.3165825 19.7071068,19.7071068 C19.5118446,19.9023689 19.2559223,20 19,20 L13,20 C12.4477153,20 12,19.5522847 12,19 C12,18.4477153 12.4477153,18 13,18 L16.5857864,18 L12.2928932,13.7071068 C11.9023689,13.3165825 11.9023689,12.6834175 12.2928932,12.2928932 C12.6834175,11.9023689 13.3165825,11.9023689 13.7071068,12.2928932 L18,16.5857864 Z M7.10542736e-15,19 L7.10542736e-15,13 C7.10542736e-15,12.4477153 0.44771525,12 1,12 C1.55228475,12 2,12.4477153 2,13 L2,16.5857864 L6.29289322,12.2928932 C6.68341751,11.9023689 7.31658249,11.9023689 7.70710678,12.2928932 C8.09763107,12.6834175 8.09763107,13.3165825 7.70710678,13.7071068 L3.41421356,18 L7,18 C7.55228475,18 8,18.4477153 8,19 C8,19.5522847 7.55228475,20 7,20 L1,20 C0.744077682,20 0.488155365,19.9023689 0.292893219,19.7071068 C0.0976310729,19.5118446 1.95399252e-14,19.2559223 1.77635684e-14,19 Z M18,3.41421356 L13.7071068,7.70710678 C13.3165825,8.09763107 12.6834175,8.09763107 12.2928932,7.70710678 C11.9023689,7.31658249 11.9023689,6.68341751 12.2928932,6.29289322 L16.5857864,2 L13,2 C12.4477153,2 12,1.55228475 12,1 C12,0.44771525 12.4477153,6.66133815e-15 13,5.32907052e-15 L19,-8.8817842e-15 C19.2559223,1.0658141e-14 19.5118446,0.0976310729 19.7071068,0.292893219 C19.9023689,0.488155365 20,0.744077682 20,1 L20,7 C20,7.55228475 19.5522847,8 19,8 C18.4477153,8 18,7.55228475 18,7 L18,3.41421356 Z M2.57571742e-14,1 C2.35367281e-14,0.744077682 0.0976310729,0.488155365 0.292893219,0.292893219 C0.488155365,0.0976310729 0.744077682,-8.8817842e-15 1,-1.24344979e-14 L7,-1.33226763e-14 C7.55228475,-1.46549439e-14 8,0.44771525 8,1 C8,1.55228475 7.55228475,2 7,2 L3.41421356,2 L7.70710678,6.29289322 C8.09763107,6.68341751 8.09763107,7.31658249 7.70710678,7.70710678 C7.31658249,8.09763107 6.68341751,8.09763107 6.29289322,7.70710678 L2,3.41421356 L2,7 C2,7.55228475 1.55228475,8 1,8 C0.44771525,8 1.42108547e-14,7.55228475 1.42108547e-14,7 L1.42108547e-14,1 Z" transform="translate(2 2)"/>
</svg>
