<svg xmlns="http://www.w3.org/2000/svg" width="24" height="24" viewBox="0 0 24 24">
  <path fill-rule="evenodd" d="M10,8.9536413 L10,17.482743 C10.0001991,17.4885537 10.0002994,17.49439 10.0002994,17.50025 C10.0002994,17.7767979 9.77679785,18.0002994 9.50025,18.0002994 C9.36161651,18.0002994 9.23631364,17.9441331 9.14581497,17.8532739 L6.3108611,15.9633047 C6.12852002,15.8888164 6.00029607,15.7098724 6.00020061,15.500484 L6,8.95350328 L0.613114909,3.44138195 C0.235478241,3.07784711 0.000801922577,2.5668978 0.000801922577,2.00025 C0.000801922577,0.894667227 0.894159606,0.00111554994 1.99966794,0.000802005118 L14,0.000151011402 C15.1060374,0.000812489623 15.9996981,0.894479737 15.9996981,2.00025 C15.9996981,2.56691302 15.7650092,3.07787455 15.3873547,3.44141124 L10,8.9536413 L10,8.9536413 Z" transform="translate(4 3)"/>
</svg>
