<svg xmlns="http://www.w3.org/2000/svg" width="24" height="24" viewBox="0 0 24 24">
  <path d="M2.51449576,3.35749293 C2.04091549,3.64164109 1.42665523,3.48807602 1.14250707,3.01449576 C0.858358915,2.54091549 1.01192398,1.92665523 1.48550424,1.64250707 C3.31569148,0.544394732 5.49327041,0 8,0 C10.5067296,0 12.6843085,0.544394732 14.5144958,1.64250707 C14.988076,1.92665523 15.1416411,2.54091549 14.8574929,3.01449576 C14.5733448,3.48807602 13.9590845,3.64164109 13.4855042,3.35749293 C11.9823581,2.45560527 10.1599371,2 8,2 C5.84006292,2 4.01764185,2.45560527 2.51449576,3.35749293 Z M4.20710678,17.2928932 C4.59763107,17.6834175 4.59763107,18.3165825 4.20710678,18.7071068 C3.81658249,19.0976311 3.18341751,19.0976311 2.79289322,18.7071068 C1.28987152,17.2040851 0.526167527,14.7602323 1.01360608,11.835601 C1.56510692,8.52659595 4.81356472,6.00006349 8,6.00006349 C10.6043435,6.00006349 12.989103,7.4308788 14.3320503,9.4452998 C15.4852935,11.1751647 15.4269523,12.8562866 14.1945105,13.7350985 C13.0854015,14.525966 11.4625306,14.2465715 10.6679497,13.0547002 C10.6124752,12.9712177 10.6124752,12.9712177 10.5581991,12.888816 C10.4864331,12.7795668 10.4864331,12.7795668 10.4162187,12.6728016 C9.56916628,11.387544 9.08033572,11 8,11 C6.44853704,11 5.50388656,12.3924406 5.9701425,14.2574644 C6.67105482,17.0611136 8.36105027,18 11,18 C11.5522847,18 12,18.4477153 12,19 C12,19.5522847 11.5522847,20 11,20 C7.53894973,20 4.99023551,18.5840477 4.0298575,14.7425356 C3.26294417,11.6748823 5.07762042,9 8,9 C9.91991491,9 10.9063388,9.78203521 12.0861644,11.5722195 C12.1586685,11.6824652 12.1586685,11.6824652 12.2290147,11.7895548 C12.281005,11.8684841 12.281005,11.8684841 12.3320503,11.9452998 C12.4945728,12.1890836 12.8354939,12.2477768 13.0333501,12.1066924 C13.2642876,11.9420187 13.2805438,11.4735913 12.6679497,10.5547002 C11.6776029,9.06917999 9.89569179,8.00006349 8,8.00006349 C5.75782886,8.00006349 3.37105941,9.85640606 2.98639392,12.164399 C2.60426726,14.457159 3.16467394,16.2504604 4.20710678,17.2928932 Z M1.89442719,7.9472136 C1.64743794,8.44119209 1.0467649,8.64141644 0.552786405,8.39442719 C0.0588079071,8.14743794 -0.14141644,7.5467649 0.105572809,7.0527864 C1.20695331,4.8500254 3.98221671,2.99971545 8.00003773,2.99986704 C10.8314668,2.99997387 12.8159108,3.71439714 14.3782285,5.00732054 C14.646097,5.22899981 14.8904971,5.45710298 15.1577745,5.72738094 C15.2625001,5.83328216 15.6284106,6.21419708 15.7071068,6.29289322 C16.0976311,6.68341751 16.0976311,7.31658249 15.7071068,7.70710678 C15.3165825,8.09763107 14.6834175,8.09763107 14.2928932,7.70710678 C14.19639,7.6106036 13.8252544,7.22424933 13.7356892,7.13367865 C13.5116679,6.90714243 13.3139395,6.72259881 13.1031102,6.54812333 C11.8994793,5.55203749 10.3659707,4.99995631 7.99996227,4.99986704 C4.76786604,4.99974509 2.66823291,6.39960216 1.89442719,7.9472136 Z M7.01360385,13.1643857 C6.92281616,12.6196141 7.29084279,12.1043915 7.83561434,12.0136039 C8.38038589,11.9228162 8.89560845,12.2908428 8.98639615,12.8356143 C9.32694656,14.8790871 11.8669153,15.9485476 13.5528759,15.1057781 C14.046879,14.8588382 14.6475321,15.0591227 14.8944719,15.5531259 C15.1414118,16.047129 14.9411273,16.6477821 14.4471241,16.8947219 C11.6184577,18.3087015 7.58811058,16.6117133 7.01360385,13.1643857 Z" transform="translate(4 2)"/>
</svg>
