<svg xmlns="http://www.w3.org/2000/svg" width="24" height="24" viewBox="0 0 24 24">
  <path d="M11,3.10001812 C13.2822403,3.56328845 15,5.58104209 15,8 L15,9.26756439 C15.5978014,9.61337381 16,10.2597176 16,11 C16,11.7402824 15.5978014,12.3866262 15,12.7324356 L15,14 C15,15.7878783 14.0616136,17.3565848 12.6504948,18.2404653 C12.8644418,18.4238692 13,18.6961039 13,19 C13,19.5522847 12.5522847,20 12,20 L4,20 C3.44771525,20 3,19.5522847 3,19 C3,18.6961039 3.13555824,18.4238692 3.34950518,18.2404653 C1.9383864,17.3565848 1,15.7878783 1,14 L1,12.7324356 C0.40219863,12.3866262 9.06584418e-17,11.7402824 0,11 C-9.06584418e-17,10.2597176 0.40219863,9.61337381 1,9.26756439 L1,8 C1,5.58104209 2.71775968,3.56328845 5,3.10001812 L5,2 L4,2 C3.44771525,2 3,1.55228475 3,1 C3,0.44771525 3.44771525,0 4,0 L12,0 C12.5522847,0 13,0.44771525 13,1 C13,1.55228475 12.5522847,2 12,2 L11,2 L11,3.10001812 Z M9,3 L9,2 L7,2 L7,3 L9,3 Z M2,11.5 L14,11.5 C14.2761424,11.5 14.5,11.2761424 14.5,11 C14.5,10.7238576 14.2761424,10.5 14,10.5 L2,10.5 C1.72385763,10.5 1.5,10.7238576 1.5,11 C1.5,11.2761424 1.72385763,11.5 2,11.5 Z" transform="translate(4 2)"/>
</svg>
