<svg xmlns="http://www.w3.org/2000/svg" width="24" height="24" viewBox="0 0 24 24">
  <path d="M8,10.9996651 L8,20 L3,20 C1.9456382,20 1.08183488,19.1841222 1.00548574,18.1492623 L1,18 L1,11 L8,10.9996651 Z M17,11 L17,18 C17,19.0543618 16.1841222,19.9181651 15.1492623,19.9945143 L15,20 L10,20 L10,10.9996651 L17,11 Z M7.42099878,0.899607927 L7.52452525,1.03310174 L7.62012024,1.17520184 L8.999,3.39266514 L10.3798798,1.17520184 L10.4754748,1.03310174 C11.2394293,-0.0234929453 12.702676,-0.321299985 13.8247982,0.37987976 C14.9957082,1.11154558 15.3517861,2.65388808 14.6201202,3.82479816 C14.1462523,4.58314539 13.332339,4.99970421 12.4995181,5.00033414 L16,5 C17.0543618,5 17.9181651,5.81587779 17.9945143,6.85073766 L18,7 L18,9 L10,8.99966514 L10,5 L8,5 L8,8.99966514 L0,9 L0,7 C0,5.9456382 0.815877791,5.08183488 1.85073766,5.00548574 L2,5 L5.5,5 C4.66795775,4.99985609 3.85383409,4.58328365 3.37987976,3.82479816 C2.64821394,2.65388808 3.00429176,1.11154558 4.17520184,0.37987976 C5.24853608,-0.290813909 6.63397673,-0.0475007658 7.42099878,0.899607927 Z M11.3927719,1.48236245 L11.3051958,1.59127995 L11.2289358,1.70350458 L9.799,4 L12.4987617,4.00033443 C12.9621339,3.99998394 13.3980144,3.78860569 13.6828797,3.42254924 L13.7720721,3.2948789 C14.1852481,2.63365909 14.0203016,1.77502744 13.4137492,1.31030319 L13.2948789,1.22792786 C12.666776,0.835445617 11.854776,0.963620074 11.3927719,1.48236245 Z M4.7051211,1.22792786 C4.00257506,1.66692735 3.78892836,2.59233285 4.22792786,3.2948789 C4.4777119,3.69461692 4.8922183,3.94590262 5.34706206,3.99222716 L5.5,4 L8.2,4 L6.79039915,1.73338005 L6.706,1.609 L6.62317571,1.50522355 C6.14522401,0.963620074 5.33322398,0.835445617 4.7051211,1.22792786 Z" transform="translate(3 2)"/>
</svg>
