<svg xmlns="http://www.w3.org/2000/svg" width="24" height="24" viewBox="0 0 24 24">
  <path d="M14,10 L6,10 C5.74407768,10 5.48815536,9.90236893 5.29289322,9.70710678 C4.94411963,9.35833319 4.90683247,8.81602673 5.18103174,8.4258722 L6.00052883,5.96738094 C6.0084733,5.72243806 6.10592809,5.47985835 6.29289322,5.29289322 C6.48815536,5.09763107 6.74407768,5 7,5 L13,5 C13.2559223,5 13.5118446,5.09763107 13.7071068,5.29289322 C13.8940719,5.47985835 13.9915267,5.72243806 13.9994712,5.96738094 L14.8189683,8.4258722 C15.0931675,8.81602673 15.0558804,9.35833319 14.7071068,9.70710678 C14.5118446,9.90236893 14.2559223,10 14,10 L14,10 Z M19,16 L12,16 C11.7440777,16 11.4881554,15.9023689 11.2928932,15.7071068 C10.9441196,15.3583332 10.9068325,14.8160267 11.1810317,14.4258722 L12.0005288,11.9673809 C12.0084733,11.7224381 12.1059281,11.4798583 12.2928932,11.2928932 C12.4881554,11.0976311 12.7440777,11 13,11 L18,11 C18.2559223,11 18.5118446,11.0976311 18.7071068,11.2928932 C18.8940719,11.4798583 18.9915267,11.7224381 18.9994712,11.9673809 L19.8189683,14.4258722 C20.0931675,14.8160267 20.0558804,15.3583332 19.7071068,15.7071068 C19.5118446,15.9023689 19.2559223,16 19,16 L19,16 Z M8,16 L1,16 C0.744077682,16 0.488155365,15.9023689 0.292893219,15.7071068 C-0.055880375,15.3583332 -0.093167533,14.8160267 0.181031745,14.4258722 L1.00052883,11.9673809 C1.0084733,11.7224381 1.10592809,11.4798583 1.29289322,11.2928932 C1.48815536,11.0976311 1.74407768,11 2,11 L7,11 C7.25592232,11 7.51184464,11.0976311 7.70710678,11.2928932 C7.89407191,11.4798583 7.9915267,11.7224381 7.99947117,11.9673809 L8.81896826,14.4258722 C9.09316753,14.8160267 9.05588037,15.3583332 8.70710678,15.7071068 C8.51184464,15.9023689 8.25592232,16 8,16 L8,16 Z M9.5,0.5 C9.5,0.223857625 9.72385763,0 10,0 C10.2761424,0 10.5,0.223857625 10.5,0.5 L10.5,3 C10.5,3.27614237 10.2761424,3.5 10,3.5 C9.72385763,3.5 9.5,3.27614237 9.5,3 L9.5,0.5 Z M15.1464466,2.14644661 C15.3417088,1.95118446 15.6582912,1.95118446 15.8535534,2.14644661 C16.0488155,2.34170876 16.0488155,2.65829124 15.8535534,2.85355339 L14.3535534,4.35355339 C14.1582912,4.54881554 13.8417088,4.54881554 13.6464466,4.35355339 C13.4511845,4.15829124 13.4511845,3.84170876 13.6464466,3.64644661 L15.1464466,2.14644661 Z M4.14644661,2.85355339 C3.95118446,2.65829124 3.95118446,2.34170876 4.14644661,2.14644661 C4.34170876,1.95118446 4.65829124,1.95118446 4.85355339,2.14644661 L6.35355339,3.64644661 C6.54881554,3.84170876 6.54881554,4.15829124 6.35355339,4.35355339 C6.15829124,4.54881554 5.84170876,4.54881554 5.64644661,4.35355339 L4.14644661,2.85355339 Z" transform="translate(2 4)"/>
</svg>
