<svg xmlns="http://www.w3.org/2000/svg" width="24" height="24" viewBox="0 0 24 24">
  <path d="M10,20 C4.4771525,20 0,15.5228475 0,10 C0,4.4771525 4.4771525,0 10,0 C15.5228475,0 20,4.4771525 20,10 C20,15.5228475 15.5228475,20 10,20 Z M11,13 L11,12 C11,11.1547249 11.1793117,10.9156426 12.0547002,10.3320503 C13.4293117,9.41564261 14,8.65472491 14,7 C14,4.79086179 12.2091387,3 10,3 C7.790861,3 6,4.790861 6,7 C6,7.45963944 6.07795541,7.91003484 6.22877324,8.33581061 C6.41317609,8.85640069 6.98468579,9.12893428 7.50527587,8.94453142 C8.02586595,8.76012857 8.29839954,8.18861887 8.11399669,7.66802879 C8.03887721,7.45595804 8,7.23134093 8,7 C8,5.8954305 8.8954305,5 10,5 C11.1045691,5 12,5.89543117 12,7 C12,7.84527509 11.8206883,8.08435739 10.9452998,8.66794971 C9.57068828,9.58435739 9,10.3452751 9,12 L9,13 C9,13.5522847 9.44771525,14 10,14 C10.5522847,14 11,13.5522847 11,13 Z M10,17 C10.5522847,17 11,16.5522847 11,16 C11,15.4477153 10.5522847,15 10,15 C9.44771525,15 9,15.4477153 9,16 C9,16.5522847 9.44771525,17 10,17 Z" transform="translate(2 2)"/>
</svg>
