<svg xmlns="http://www.w3.org/2000/svg" width="24" height="24" viewBox="0 0 24 24">
  <path d="M11,18 L11,11 L7,11 L7,18 L3,18 C2.44771525,18 2,17.5522847 2,17 L2,9 L0.517757028,9 C0.511946251,9.00019909 0.506110035,9.00029944 0.50025,9.00029944 C0.223702146,9.00029944 0.000200555815,8.77679785 0.000200555815,8.50025 C0.000200555815,8.35256986 0.0639364717,8.22001691 0.165450616,8.12854885 L8.28214651,0.303953906 C8.46377193,0.11665996 8.71821441,0.000401011402 9.00025,0.000401011402 C9.28228559,0.000401011402 9.53672807,0.11665996 9.71835349,0.303953905 L17.8350494,8.12854885 C17.9365635,8.22001691 18.0002994,8.35256986 18.0002994,8.50025 C18.0002994,8.77679785 17.7767979,9.00029944 17.50025,9.00029944 C17.4804755,9.00029944 17.4609723,8.9991567 17.4418026,8.99693352 L17.4403166,9 L16,9 L16,17 C16,17.5522847 15.5522847,18 15,18 L11,18 L11,18 Z" transform="translate(3 3)"/>
</svg>
