<svg xmlns="http://www.w3.org/2000/svg" width="24" height="24" viewBox="0 0 24 24">
  <path d="M15,0 C15.5522847,0 16,0.44771525 16,1 C16,4.87334594 14.369177,6.93661053 9.82220421,9.99946175 C14.369177,13.0633895 16,15.1266541 16,19 C16,19.5128358 15.6139598,19.9355072 15.1166211,19.9932723 L15,20 L1,20 C0.487164161,20 0.0644928393,19.6139598 0.00672773133,19.1166211 L0,19 L0.00264165885,18.733686 C0.0771253129,15.0305212 1.73615953,12.9924345 6.17779579,10.0005383 C1.63082298,6.93661053 0,4.87334594 0,1 C0,0.487164161 0.38604019,0.0644928393 0.883378875,0.00672773133 L1,0 L15,0 Z M8.00061666,11.1920955 L7.31146712,11.6488839 C3.87997599,13.9578384 2.43086011,15.5064756 2.08503939,17.783863 L2.05577479,17.9999621 L2.80997589,17.9993091 C3.27347451,17.1966343 3.91620018,16.5113815 4.6865,16 C5.6355,15.369 6.7745,15 8.0005,15 C9.2255,15 10.3645,15.369 11.3145,16 C12.0840826,16.5113815 12.7266054,17.1966343 13.1900467,17.9993091 L13.9442252,17.9999621 C13.6400038,15.4525279 12.0437474,13.8363392 8.00061666,11.1920955 Z M13.9441064,2.00103247 L2.05589363,2.00103247 C2.2468958,3.59849378 2.94613019,4.82978519 4.4384543,6.17819595 C5.43330079,5.43817729 6.66497271,5 8,5 C9.33502729,5 10.5666992,5.43817729 11.5625835,6.17674388 C12.9860822,4.89083775 13.6877894,3.71068227 13.9148141,2.21710107 L13.9441064,2.00103247 Z" transform="translate(4 2)"/>
</svg>
