<svg xmlns="http://www.w3.org/2000/svg" width="24" height="24" viewBox="0 0 24 24">
  <path d="M2,0 L18,0 C19.1045695,-2.22044605e-16 20,0.8954305 20,2 L20,14 C20,15.1045695 19.1045695,16 18,16 L2,16 C0.8954305,16 1.11022302e-16,15.1045695 0,14 L0,2 C-2.22044605e-16,0.8954305 0.8954305,2.22044605e-16 2,0 Z M3,5 L7,5 C7.55228475,5 8,4.55228475 8,4 C8,3.44771525 7.55228475,3 7,3 L3,3 C2.44771525,3 2,3.44771525 2,4 C2,4.55228475 2.44771525,5 3,5 Z M3,9 L7,9 C7.55228475,9 8,8.55228475 8,8 C8,7.44771525 7.55228475,7 7,7 L3,7 C2.44771525,7 2,7.44771525 2,8 C2,8.55228475 2.44771525,9 3,9 Z M3,13 L7,13 C7.55228475,13 8,12.5522847 8,12 C8,11.4477153 7.55228475,11 7,11 L3,11 C2.44771525,11 2,11.4477153 2,12 C2,12.5522847 2.44771525,13 3,13 Z M14,7 C15.1045695,7 16,6.1045695 16,5 C16,3.8954305 15.1045695,3 14,3 C12.8954305,3 12,3.8954305 12,5 C12,6.1045695 12.8954305,7 14,7 Z M14,13 C16.209139,13 18,12.5 18,11.5 C18,10 16.209139,8 14,8 C11.790861,8 10,10 10,11.5 C10,12.5 11.790861,13 14,13 Z" transform="translate(2 4)"/>
</svg>
