<svg xmlns="http://www.w3.org/2000/svg" width="24" height="24" viewBox="0 0 24 24">
  <path d="M10,20 C4.4771525,20 0,15.5228475 0,10 C0,4.4771525 4.4771525,0 10,0 C15.5228475,0 20,4.4771525 20,10 C20,15.5228475 15.5228475,20 10,20 Z M10,6 C10.5522847,6 11,5.55228475 11,5 C11,4.44771525 10.5522847,4 10,4 C9.44771525,4 9,4.44771525 9,5 C9,5.55228475 9.44771525,6 10,6 Z M9,8.88888702 L9,15.110962 C9,15.6018807 9.44771525,15.999849 10,15.999849 C10.5522847,15.999849 11,15.6018807 11,15.110962 L11,8.88888702 C11,8.39796828 10.5522847,8 10,8 C9.44771525,8 9,8.39796828 9,8.88888702 Z" transform="translate(2 2)"/>
</svg>
