<svg xmlns="http://www.w3.org/2000/svg" width="24" height="24" viewBox="0 0 24 24">
  <path fill-rule="evenodd" d="M8,9 C8,8.17157288 7.32842712,7.5 6.5,7.5 C5.67157288,7.5 5,8.17157288 5,9 L5,9.5 C5,9.77614237 4.77614237,10 4.5,10 C4.22385763,10 4,9.77614237 4,9.5 L4,9 C4,8.17157288 3.32842712,7.5 2.5,7.5 C1.67157288,7.5 1,8.17157288 1,9 L1,9.5 C1,9.77614237 0.776142375,10 0.5,10 C0.223857625,10 3.38176876e-17,9.77614237 0,9.5 L0,9 C0.0489120553,4.02887755 4.06733741,0 9,0 C13.9326626,0 17.9512698,4.02887755 18,9 L18,9.5 C18,9.77614237 17.7761424,10 17.5,10 C17.2238576,10 17,9.77614237 17,9.5 L17,9 C17,8.17157288 16.3284271,7.5 15.5,7.5 C14.6715729,7.5 14,8.17157288 14,9 L14,9.5 C14,9.77614237 13.7761424,10 13.5,10 C13.2238576,10 13,9.77614237 13,9.5 L13,9 C13,8.17157288 12.3284271,7.5 11.5,7.5 C10.6715729,7.5 10,8.17157288 10,9 L10,15 C10,16.6568542 8.65685425,18 7,18 C5.34314575,18 4,16.6568542 4,15 C4,14.4477153 4.44771525,14 5,14 C5.55228475,14 6,14.4477153 6,15 C6,15.5522847 6.44771525,16 7,16 C7.55228475,16 8,15.5522847 8,15 L8,9 Z" transform="translate(3 3)"/>
</svg>
