<svg xmlns="http://www.w3.org/2000/svg" width="24" height="24" viewBox="0 0 24 24">
  <path fill-rule="evenodd" d="M19,5 C19.52,5 19.9365306,5.3880102 19.9933819,5.88380102 L19.9991413,7.49841619 C19.9980536,8.65679066 19.9955882,10.3455882 19.99,12.05 C19.989554,12.1860173 19.9515586,12.3197026 19.85,12.49 L16.85,17.49 C16.7548218,17.6570282 16.6850929,17.748496 16.66,18.08 L16.66,20.0001 L12,20.0001 L12,15.0103607 C12,14.7705231 12.0446778,14.5952347 12.2,14.37 L15.2,10.37 L15.2,10.37 C15.53,9.93 16.15,9.84 16.6,10.17 C17.05,10.5 17.0790405,11.1175842 16.87,11.47 L14.79,14.251 L14.79,14.251 C14.724823,14.3210754 14.5018445,14.647406 14.79,14.95 C15.0781555,15.252594 15.4503784,15.0340424 15.551,14.9 L17.85,11.83 L17.85,11.83 C17.9489639,11.697986 18,11.5999756 18,11.47 L18,6 C18,5.45 18.44,5 19,5 Z M1,5 C1.52,5 1.93653061,5.3880102 1.99338192,5.88380102 L2,6 L2,11.47 C2,11.5999756 2.05103607,11.697986 2.15,11.83 L4.449,14.9 L4.449,14.9 C4.54962158,15.0340424 4.92184448,15.252594 5.21,14.95 C5.49815552,14.647406 5.275177,14.3210754 5.21,14.251 L3.13,11.47 L3.13,11.47 C2.92095947,11.1175842 2.95,10.5 3.4,10.17 C3.85,9.84 4.47,9.93 4.8,10.37 L7.8,14.37 L7.8,14.37 C7.92943514,14.5576955 7.98203394,14.7107062 7.99597145,14.8952909 L8,15.0103607 L8,20.0001 L3.34,20.0001 L3.34,18.08 L3.34,18.08 C3.31849178,17.7958538 3.26418981,17.6880606 3.1891766,17.5578775 L0.15,12.49 L0.15,12.49 C0.0484414343,12.3197026 0.0104459584,12.1860173 0.01,12.05 L0.000858691227,7.49841619 L0.000858691227,7.49841619 L0,6 C0,5.45 0.44,5 1,5 Z M12.8286475,5.99817202 L14,6 C15.1045695,6 16,6.8954305 16,8 L16,9 L13,8.99916774 L13,7 C13,6.6486814 12.9396111,6.31146737 12.8286475,5.99817202 Z M10,5 C11.1045695,5 12,5.8954305 12,7 L12,9 L4,9 L4,7 C4,5.8954305 4.8954305,5 6,5 L10,5 Z M12.5,2 C13.3284271,2 14,2.67157288 14,3.5 C14,4.32842712 13.3284271,5 12.5,5 C11.6715729,5 11,4.32842712 11,3.5 C11,2.67157288 11.6715729,2 12.5,2 Z M8,-3.99680289e-14 C9.1045695,-3.99680289e-14 10,0.8954305 10,2 C10,3.1045695 9.1045695,4 8,4 C6.8954305,4 6,3.1045695 6,2 C6,0.8954305 6.8954305,-3.99680289e-14 8,-3.99680289e-14 Z" transform="translate(2 2)"/>
</svg>
