<svg xmlns="http://www.w3.org/2000/svg" width="24" height="24" viewBox="0 0 24 24">
  <path fill-rule="evenodd" d="M19,5 C19.56,5 20,5.45 20,6 C20,6 20,9 19.99,12.05 C19.989554,12.1860173 19.9515586,12.3197026 19.85,12.49 C19,13.9153137 17.1374207,17.0045013 16.85,17.49 C16.7548218,17.6570282 16.6850929,17.748496 16.66,18.08 L16.66,20.0001 L16.66,20.0001 L12,20.0001 L12,15.0103607 C12,14.7705231 12.0446778,14.5952347 12.2,14.37 C12.7358358,13.6538713 13.7358358,12.3205379 15.2,10.37 C15.53,9.93 16.15,9.84 16.6,10.17 C17.05,10.5 17.0790405,11.1175842 16.87,11.47 C16.87,11.47 15.730423,12.999649 14.79,14.251 C14.724823,14.3210754 14.5018445,14.647406 14.79,14.95 C15.0781555,15.252594 15.4503784,15.0340424 15.551,14.9 C16.22435,14.0028076 16.974411,12.9980011 17.85,11.83 C17.9489639,11.697986 18,11.5999756 18,11.47 L18,6 L18,6 C18,5.45 18.44,5 19,5 Z M1,5 C1.56,5 2,5.45 2,6 L2,6 L2,11.47 C2,11.5999756 2.05103607,11.697986 2.15,11.83 C3.02558899,12.9980011 3.77565002,14.0028076 4.449,14.9 C4.54962158,15.0340424 4.92184448,15.252594 5.21,14.95 C5.49815552,14.647406 5.275177,14.3210754 5.21,14.251 C4.26957703,12.999649 3.13,11.47 3.13,11.47 C2.92095947,11.1175842 2.95,10.5 3.4,10.17 C3.85,9.84 4.47,9.93 4.8,10.37 C6.26416423,12.3205379 7.26416423,13.6538713 7.8,14.37 C7.95532217,14.5952347 8,14.7705231 8,15.0103607 L8,15.0103607 L8,20.0001 L3.34,20.0001 C3.34,19.3338244 3.34,18.6937911 3.34,18.08 C3.31490707,17.748496 3.24517822,17.6570282 3.15,17.49 C2.86257935,17.0045013 1,13.9153137 0.15,12.49 C0.0484414343,12.3197026 0.0104459584,12.1860173 0.01,12.05 C0.00441176471,10.3455882 0.00194636678,8.65679066 0.000858691227,7.49841619 L0,6 C0,5.45 0.44,5 1,5 Z M9.3255338,4.96871874 L9.35272834,4.97795818 L10.0149287,7.62126781 L10.0438383,7.70619836 L10.0711399,7.75947594 L10.1192052,7.82686628 L10.1450441,7.85453094 L10.1813674,7.88765606 L10.2088243,7.90824952 L10.2512755,7.93515717 L10.2825422,7.95118448 L10.3597962,7.98022912 L10.447687,7.99726027 L10.5,8 C10.5339312,8 10.567073,7.99662009 10.5981777,7.99105576 C10.7000733,7.97158931 10.7969153,7.92056035 10.8711832,7.83500307 L10.8873493,7.81748936 L10.9191953,7.77304347 L10.946,7.724 L11.809,5.99988407 L14.243,5.999 L10,10.2426407 L5.756,5.999 L8.5534276,5.99717904 L8.61711675,5.98610158 L8.68382248,5.96512676 L8.76285815,5.92541125 L8.83288676,5.87308364 L8.85953416,5.84747034 L8.89316841,5.809059 L8.9472136,5.7236068 L9.3255338,4.96871874 Z M13,8.8817842e-16 C14.6568542,8.8817842e-16 16,1.34314575 16,3 C16,3.76831564 15.7111756,4.46917274 15.2361785,4.99991961 L11.4642272,5.00120334 L11.3956156,5.01099851 L11.3020324,5.04084869 L11.2371915,5.07455823 L11.2099857,5.09258025 L11.1404658,5.15252966 L11.1068316,5.190941 L11.072,5.24 L10.657,6.066 L9.98507125,3.37873219 L9.95616174,3.29380164 C9.80524607,2.95020694 9.32829967,2.89591639 9.1034203,3.19438907 L9.0527864,3.2763932 L8.19,4.99988407 L4.763,4.999 L4.62845074,4.8375528 C4.23451942,4.32988182 4,3.69232838 4,3 C4,1.34314575 5.34314575,8.8817842e-16 7,8.8817842e-16 C7.76925376,8.8817842e-16 8.47088413,0.289530143 9.00186298,0.765562292 L9.12132034,0.878679656 L10,1.757 L10.8786797,0.878679656 L10.998137,0.765562292 C11.5291159,0.289530143 12.2307462,8.8817842e-16 13,8.8817842e-16 Z" transform="translate(2 2)"/>
</svg>
