<svg xmlns="http://www.w3.org/2000/svg" width="24" height="24" viewBox="0 0 24 24">
  <path d="M10,20 C4.4771525,20 0,15.5228475 0,10 C0,4.4771525 4.4771525,0 10,0 C15.5228475,0 20,4.4771525 20,10 C20,15.5228475 15.5228475,20 10,20 Z M6,8 C7.1045695,8 8,7.1045695 8,6 C8,4.8954305 7.1045695,4 6,4 C4.8954305,4 4,4.8954305 4,6 C4,7.1045695 4.8954305,8 6,8 Z M14,16 C15.1045695,16 16,15.1045695 16,14 C16,12.8954305 15.1045695,12 14,12 C12.8954305,12 12,12.8954305 12,14 C12,15.1045695 12.8954305,16 14,16 Z M6.70710678,14.7071068 L14.7071068,6.70710678 C15.0976311,6.31658249 15.0976311,5.68341751 14.7071068,5.29289322 C14.3165825,4.90236893 13.6834175,4.90236893 13.2928932,5.29289322 L5.29289322,13.2928932 C4.90236893,13.6834175 4.90236893,14.3165825 5.29289322,14.7071068 C5.68341751,15.0976311 6.31658249,15.0976311 6.70710678,14.7071068 Z" transform="translate(2 2)"/>
</svg>
