<svg xmlns="http://www.w3.org/2000/svg" width="24" height="24" viewBox="0 0 24 24">
  <path d="M18,8 C18,7.72385763 17.7761424,7.5 17.5,7.5 C17.2238576,7.5 17,7.72385763 17,8 C17,8.55228475 16.5522847,9 16,9 C15.4477153,9 15,8.55228475 15,8 L15,6 L9.89998188,6 C9.43671155,8.28224032 7.41895791,10 5,10 C2.23857625,10 2.66453526e-14,7.76142375 2.66453526e-14,5 C2.66453526e-14,2.23857625 2.23857625,0 5,0 C7.41895791,0 9.43671155,1.71775968 9.89998188,4 L19,4 C19.5522847,4 20,4.44771525 20,5 L20,8 C20,8.55228475 19.5522847,9 19,9 C18.4477153,9 18,8.55228475 18,8 L18,8 Z M5,8 C6.65685425,8 8,6.65685425 8,5 C8,3.34314575 6.65685425,2 5,2 C3.34314575,2 2,3.34314575 2,5 C2,6.65685425 3.34314575,8 5,8 Z" transform="translate(2 7)"/>
</svg>
