<svg xmlns="http://www.w3.org/2000/svg" width="24" height="24" viewBox="0 0 24 24">
  <path d="M7.82929429,1 L18,1 C19.1045695,1 20,1.8954305 20,3 L20,15 C20,16.1045695 19.1045695,17 18,17 L7.82929429,17 C7.93984578,16.6872211 8,16.3506354 8,16 L8,15 C8,14.129072 7.6252078,13.3227545 7,12.7636583 L7,5.23634166 C7.6252078,4.67724548 8,3.87092804 8,3 L8,2 C8,1.64936458 7.93984578,1.31277893 7.82929429,1 L7.82929429,1 Z M1.10482475,16.7889689 C0.449691162,16.4605094 9.58617015e-17,15.7827702 0,15 L0,3 C-9.58617015e-17,2.2172298 0.449691162,1.53949061 1.10482475,1.21103114 C1.03647736,1.46242946 1,1.72695486 1,2 L1,3 C1,3.87092804 1.3747922,4.67724548 2,5.23634166 L2,12.7636583 C1.3747922,13.3227545 1,14.129072 1,15 L1,16 C1,16.2730451 1.03647736,16.5375705 1.10482475,16.7889689 L1.10482475,16.7889689 Z M12,3 C11.4477153,3 11,3.44771525 11,4 L11,5 C11,5.55228475 11.4477153,6 12,6 L17,6 C17.5522847,6 18,5.55228475 18,5 L18,4 C18,3.44771525 17.5522847,3 17,3 L12,3 Z M12.5,9 C12.7761424,9 13,8.77614237 13,8.5 C13,8.22385763 12.7761424,8 12.5,8 C12.2238576,8 12,8.22385763 12,8.5 C12,8.77614237 12.2238576,9 12.5,9 Z M14.5,15 C14.7761424,15 15,14.7761424 15,14.5 C15,14.2238576 14.7761424,14 14.5,14 C14.2238576,14 14,14.2238576 14,14.5 C14,14.7761424 14.2238576,15 14.5,15 Z M14.5,9 C14.7761424,9 15,8.77614237 15,8.5 C15,8.22385763 14.7761424,8 14.5,8 C14.2238576,8 14,8.22385763 14,8.5 C14,8.77614237 14.2238576,9 14.5,9 Z M16.5,9 C16.7761424,9 17,8.77614237 17,8.5 C17,8.22385763 16.7761424,8 16.5,8 C16.2238576,8 16,8.22385763 16,8.5 C16,8.77614237 16.2238576,9 16.5,9 Z M12.5,11 C12.7761424,11 13,10.7761424 13,10.5 C13,10.2238576 12.7761424,10 12.5,10 C12.2238576,10 12,10.2238576 12,10.5 C12,10.7761424 12.2238576,11 12.5,11 Z M14.5,11 C14.7761424,11 15,10.7761424 15,10.5 C15,10.2238576 14.7761424,10 14.5,10 C14.2238576,10 14,10.2238576 14,10.5 C14,10.7761424 14.2238576,11 14.5,11 Z M16.5,11 C16.7761424,11 17,10.7761424 17,10.5 C17,10.2238576 16.7761424,10 16.5,10 C16.2238576,10 16,10.2238576 16,10.5 C16,10.7761424 16.2238576,11 16.5,11 Z M12.5,13 C12.7761424,13 13,12.7761424 13,12.5 C13,12.2238576 12.7761424,12 12.5,12 C12.2238576,12 12,12.2238576 12,12.5 C12,12.7761424 12.2238576,13 12.5,13 Z M14.5,13 C14.7761424,13 15,12.7761424 15,12.5 C15,12.2238576 14.7761424,12 14.5,12 C14.2238576,12 14,12.2238576 14,12.5 C14,12.7761424 14.2238576,13 14.5,13 Z M16.5,13 C16.7761424,13 17,12.7761424 17,12.5 C17,12.2238576 16.7761424,12 16.5,12 C16.2238576,12 16,12.2238576 16,12.5 C16,12.7761424 16.2238576,13 16.5,13 Z M6,13.2675644 C6.59780137,13.6133738 7,14.2597176 7,15 L7,16 C7,17.1045695 6.1045695,18 5,18 L4,18 C2.8954305,18 2,17.1045695 2,16 L2,15 C2,14.2597176 2.40219863,13.6133738 3,13.2675644 L3,4.73243561 C2.40219863,4.38662619 2,3.74028236 2,3 L2,2 C2,0.8954305 2.8954305,2.22044605e-16 4,0 L5,0 C6.1045695,-2.22044605e-16 7,0.8954305 7,2 L7,3 C7,3.74028236 6.59780137,4.38662619 6,4.73243561 L6,13.2675644 Z" transform="translate(2 3)"/>
</svg>
