<svg xmlns="http://www.w3.org/2000/svg" width="24" height="24" viewBox="0 0 24 24">
  <path fill-rule="evenodd" d="M2.08458903,8.5 L9.74595034,12.9391867 C9.88704735,13.0202711 10.106198,13.0202711 10.2462943,12.9391867 L17.9076556,8.5 L19.7138032,9.54652763 C19.8829195,9.62460897 20,9.81480709 20,10 C20,10.1811887 19.8799174,10.3763921 19.7138032,10.4534724 L10.2462943,15.9391867 C10.106198,16.0202711 9.88704735,16.0202711 9.74595034,15.9391867 L0.278441428,10.4534724 C-0.0928138095,10.281293 -0.0928138095,9.71970803 0.278441428,9.54652763 L2.08458903,8.5 Z M19.7138032,5.54652763 C19.8829195,5.62460897 20,5.81480709 20,6 C20,6.18118874 19.8799174,6.37639208 19.7138032,6.45347237 L10.2462943,11.9391867 C10.106198,12.0202711 9.88704735,12.0202711 9.74595034,11.9391867 L0.278441428,6.45347237 C-0.0928138095,6.28129301 -0.0928138095,5.71970803 0.278441428,5.54652763 L9.74595034,0.0608133472 C9.88604666,-0.0202711157 10.1051973,-0.0202711157 10.2462943,0.0608133472 L19.7138032,5.54652763 Z" transform="translate(2 4)"/>
</svg>
