<svg xmlns="http://www.w3.org/2000/svg" width="24" height="24" viewBox="0 0 24 24">
  <path d="M1,6 L3,6 C3.55228475,6 4,6.44771525 4,7 L4,17 C4,17.5522847 3.55228475,18 3,18 L1,18 C0.44771525,18 6.76353751e-17,17.5522847 0,17 L0,7 C-6.76353751e-17,6.44771525 0.44771525,6 1,6 Z M2,17 C2.55228475,17 3,16.5522847 3,16 C3,15.4477153 2.55228475,15 2,15 C1.44771525,15 1,15.4477153 1,16 C1,16.5522847 1.44771525,17 2,17 Z M16,6 C17.104,6 18,6.896 18,8 C18,8.303 17.933,8.59 17.812,8.848 L15.971,16.343 C15.808,17.284 14.988,18 14,18 C13.912,18 13.825,17.994 13.739,17.983 L13.716,18 L7,18 C5.896,18 5,17.104 5,16 L5,8 C5,7.445 5.226,6.944 5.59,6.582 L11.232,0.36 C11.25,0.339 11.269,0.318 11.288,0.299 L11.293,0.293 C11.474,0.112 11.724,0 12,0 C12.552,0 13,0.448 13,1 C13,1.091 12.988,1.179 12.965,1.263 L12.008,5.413 L12.016,5.423 C12.011,5.449 12,5.473 12,5.5 C12,5.776 12.224,6 12.5,6 L16,6 Z" transform="translate(3 3)"/>
</svg>
