<svg xmlns="http://www.w3.org/2000/svg" width="24" height="24" viewBox="0 0 24 24">
  <path d="M9.70722479,9.23211504 C8.62449798,7.65182381 8.7849728,5.47572088 10.1886493,4.07204443 L13.0720444,1.18864926 C14.6569101,-0.396216419 17.2264851,-0.396216419 18.8113507,1.18864926 C20.3962164,2.77351493 20.3962164,5.3430899 18.8113507,6.92795557 L15.9279556,9.81135074 C14.5242791,11.2150272 12.3481762,11.375502 10.767885,10.2927752 L10.2927752,10.767885 C11.375502,12.3481762 11.2150272,14.5242791 9.81135074,15.9279556 L6.92795557,18.8113507 C5.3430899,20.3962164 2.77351493,20.3962164 1.18864926,18.8113507 C-0.396216419,17.2264851 -0.396216419,14.6569101 1.18864926,13.0720444 L4.07204443,10.1886493 C5.47572088,8.7849728 7.65182381,8.62449798 9.23211504,9.70722479 L9.70722479,9.23211504 Z M11.1721735,7.76716636 L13.4696699,5.46966991 C13.7625631,5.1767767 14.2374369,5.1767767 14.5303301,5.46966991 C14.8232233,5.76256313 14.8232233,6.23743687 14.5303301,6.53033009 L12.2328336,8.82782654 C12.9863931,9.15739244 13.8970499,9.01382932 14.513742,8.39713718 L17.3971372,5.51374201 C18.2009543,4.70992492 18.2009543,3.40667991 17.3971372,2.60286282 C16.5933201,1.79904573 15.2900751,1.79904573 14.486258,2.60286282 L11.6028628,5.48625799 C10.9861707,6.10295013 10.8426076,7.01360695 11.1721735,7.76716636 L11.1721735,7.76716636 Z M7.76716636,11.1721735 C7.01360695,10.8426076 6.10295013,10.9861707 5.48625799,11.6028628 L2.60286282,14.486258 C1.79904573,15.2900751 1.79904573,16.5933201 2.60286282,17.3971372 C3.40667991,18.2009543 4.70992492,18.2009543 5.51374201,17.3971372 L8.39713718,14.513742 C9.01382932,13.8970499 9.15739244,12.9863931 8.82782654,12.2328336 L6.53033009,14.5303301 C6.23743687,14.8232233 5.76256313,14.8232233 5.46966991,14.5303301 C5.1767767,14.2374369 5.1767767,13.7625631 5.46966991,13.4696699 L7.76716636,11.1721735 L7.76716636,11.1721735 Z" transform="translate(2 2)"/>
</svg>
