<svg xmlns="http://www.w3.org/2000/svg" width="24" height="24" viewBox="0 0 24 24">
  <path d="M14.6464466,15.3535534 C14.4511845,15.1582912 14.4511845,14.8417088 14.6464466,14.6464466 C14.8417088,14.4511845 15.1582912,14.4511845 15.3535534,14.6464466 L17.3535534,16.6464466 C17.5488155,16.8417088 17.5488155,17.1582912 17.3535534,17.3535534 C17.1582912,17.5488155 16.8417088,17.5488155 16.6464466,17.3535534 L14.6464466,15.3535534 Z M16,12.5 C15.7238576,12.5 15.5,12.2761424 15.5,12 C15.5,11.7238576 15.7238576,11.5 16,11.5 L19,11.5 C19.2761424,11.5 19.5,11.7238576 19.5,12 C19.5,12.2761424 19.2761424,12.5 19,12.5 L16,12.5 Z M11.5,16 C11.5,15.7238576 11.7238576,15.5 12,15.5 C12.2761424,15.5 12.5,15.7238576 12.5,16 L12.5,19 C12.5,19.2761424 12.2761424,19.5 12,19.5 C11.7238576,19.5 11.5,19.2761424 11.5,19 L11.5,16 Z M2.64644661,3.35355339 C2.45118446,3.15829124 2.45118446,2.84170876 2.64644661,2.64644661 C2.84170876,2.45118446 3.15829124,2.45118446 3.35355339,2.64644661 L5.35355339,4.64644661 C5.54881554,4.84170876 5.54881554,5.15829124 5.35355339,5.35355339 C5.15829124,5.54881554 4.84170876,5.54881554 4.64644661,5.35355339 L2.64644661,3.35355339 Z M1,8.5 C0.723857625,8.5 0.5,8.27614237 0.5,8 C0.5,7.72385763 0.723857625,7.5 1,7.5 L4,7.5 C4.27614237,7.5 4.5,7.72385763 4.5,8 C4.5,8.27614237 4.27614237,8.5 4,8.5 L1,8.5 Z M7.5,1 C7.5,0.723857625 7.72385763,0.5 8,0.5 C8.27614237,0.5 8.5,0.723857625 8.5,1 L8.5,4 C8.5,4.27614237 8.27614237,4.5 8,4.5 C7.72385763,4.5 7.5,4.27614237 7.5,4 L7.5,1 Z M13.059834,11 C12.9886528,11 12.9154379,10.9979592 12.8432398,10.9938776 C12.2829422,10.9642857 11.8528044,10.4846939 11.8812769,9.92142857 C11.9107663,9.35918367 12.3551402,8.92142857 12.9510285,8.95612245 C13.5245455,8.98877551 14.0889106,8.78061224 14.4946434,8.37244898 L17.3703635,5.48571429 C17.7547419,5.1 17.9662517,4.5877551 17.9662517,4.04285714 C17.9662517,3.49795918 17.7547419,2.98571429 17.3703635,2.6 C16.6016066,1.82857143 15.2634003,1.82857143 14.4946434,2.6 L11.6179065,5.48571429 C11.2121737,5.89387755 11.0047314,6.44387755 11.0372714,7.03571429 C11.0657438,7.59897959 10.6356061,8.07857143 10.0742916,8.10816327 C9.51704454,8.13163265 9.03504619,7.70510204 9.00555684,7.14285714 C8.94556127,5.98265306 9.37366528,4.85306122 10.1790296,4.04285714 L13.0567834,1.15714286 C14.5922633,-0.385714286 17.2737604,-0.385714286 18.8082235,1.15714286 C19.5769804,1.92755102 20,2.95306122 20,4.04285714 C20,5.13265306 19.5769804,6.15816327 18.8082235,6.92857143 L15.9325035,9.81530612 C15.1759491,10.5744898 14.1397544,11 13.059834,11 Z M4.06743068,20 C2.98142669,20 1.95948473,19.5770132 1.19175719,18.808316 C0.424029649,18.0406355 0,17.0187563 0,15.932819 C0,14.8468816 0.424029649,13.8260192 1.19175719,13.057322 L4.06743068,10.181825 C4.87379882,9.37448955 6.00657826,8.94133477 7.15664429,9.00640966 C7.71693286,9.03589673 8.14808052,9.51480729 8.11859164,10.0750615 C8.08910277,10.6363325 7.59897738,11.0654201 7.04987423,11.0379666 C6.46009678,11.0064459 5.9120105,11.2128554 5.50628429,11.6195735 L2.62959394,14.4950705 C2.24522174,14.8794191 2.03371534,15.3898503 2.03371534,15.932819 C2.03371534,16.4757876 2.24522174,16.9862189 2.62959394,17.3705675 C3.39833834,18.1392647 4.73753989,18.1392647 5.50628429,17.3705675 L8.38195778,14.4950705 C8.78768399,14.0893692 8.9941061,13.5402997 8.96360037,12.9505585 C8.9341115,12.3903043 9.36424229,11.9113937 9.92554773,11.8819067 C10.480752,11.850386 10.9647763,12.2835408 10.9942651,12.843795 C11.0552766,13.9998912 10.6271795,15.1254835 9.81979453,15.932819 L6.94412104,18.808316 C6.17537664,19.5770132 5.15343468,20 4.06743068,20 Z" transform="translate(2 2)"/>
</svg>
