<svg xmlns="http://www.w3.org/2000/svg" width="24" height="24" viewBox="0 0 24 24">
  <path d="M14.5857864,2 L10,2 C9.44771525,2 9,1.55228475 9,1 C9,0.44771525 9.44771525,-1.42108547e-14 10,-1.42108547e-14 L17,-1.42108547e-14 C17.5522847,-1.42108547e-14 18,0.44771525 18,1 L18,8 C18,8.55228475 17.5522847,9 17,9 C16.4477153,9 16,8.55228475 16,8 L16,3.41421356 L9.70710678,9.70710678 C9.31658249,10.0976311 8.68341751,10.0976311 8.29289322,9.70710678 C7.90236893,9.31658249 7.90236893,8.68341751 8.29289322,8.29289322 L14.5857864,2 L14.5857864,2 Z M16,12 C16,11.4477153 16.4477153,11 17,11 C17.5522847,11 18,11.4477153 18,12 L18,14.9951185 C18,16.6529904 16.6594521,18 15.0059397,18 L2.99406028,18 C1.34095278,18 0,16.6582378 0,15.0059397 L0,2.99406028 C0,1.33828142 1.34382114,-1.77635684e-15 3.0048815,-1.77635684e-15 L6,-1.77635684e-15 C6.55228475,-1.77635684e-15 7,0.44771525 7,1 C7,1.55228475 6.55228475,2 6,2 L3.0048815,2 C2.44654542,2 2,2.44470459 2,2.99406028 L2,15.0059397 C2,15.5539384 2.44579254,16 2.99406028,16 L15.0059397,16 C15.552724,16 16,15.5505681 16,14.9951185 L16,12 Z" transform="translate(3 3)"/>
</svg>
