<svg xmlns="http://www.w3.org/2000/svg" width="24" height="24" viewBox="0 0 24 24">
  <path d="M13,6 L14,6 C15.1045695,6 16,6.8954305 16,8 L16,18 C16,19.1045695 15.1045695,20 14,20 L2,20 C0.8954305,20 1.3527075e-16,19.1045695 0,18 L0,8 C-1.3527075e-16,6.8954305 0.8954305,6 2,6 L3,6 L3,5 C3,2.23857625 5.23857625,5.55111512e-16 8,0 C10.7614237,-4.4408921e-16 13,2.23857625 13,5 L13,6 Z M11,6 L11,5 C11,3.34314575 9.65685425,2 8,2 C6.34314575,2 5,3.34314575 5,5 L5,6 L11,6 Z M7,13.7324356 L7,15 C7,15.5522847 7.44771525,16 8,16 C8.55228475,16 9,15.5522847 9,15 L9,13.7324356 C9.59780137,13.3866262 10,12.7402824 10,12 C10,10.8954305 9.1045695,10 8,10 C6.8954305,10 6,10.8954305 6,12 C6,12.7402824 6.40219863,13.3866262 7,13.7324356 L7,13.7324356 Z" transform="translate(4 2)"/>
</svg>
