<svg xmlns="http://www.w3.org/2000/svg" width="24" height="24" viewBox="0 0 24 24">
  <path d="M0,17.5 L0,2 C-1.3527075e-16,0.8954305 0.8954305,2.02906125e-16 2,0 L16,0 C17.1045695,-2.02906125e-16 18,0.8954305 18,2 L18,12 C18,13.1045695 17.1045695,14 16,14 L4,14 C2.34314575,14 1,15.3431458 1,17 L1,17.5 C1,17.7761424 0.776142375,18 0.5,18 C0.223857625,18 3.38176876e-17,17.7761424 0,17.5 Z M5,8 C5.55228475,8 6,7.55228475 6,7 C6,6.44771525 5.55228475,6 5,6 C4.44771525,6 4,6.44771525 4,7 C4,7.55228475 4.44771525,8 5,8 Z M9,8 C9.55228475,8 10,7.55228475 10,7 C10,6.44771525 9.55228475,6 9,6 C8.44771525,6 8,6.44771525 8,7 C8,7.55228475 8.44771525,8 9,8 Z M13,8 C13.5522847,8 14,7.55228475 14,7 C14,6.44771525 13.5522847,6 13,6 C12.4477153,6 12,6.44771525 12,7 C12,7.55228475 12.4477153,8 13,8 Z" transform="translate(3 3)"/>
</svg>
