<svg xmlns="http://www.w3.org/2000/svg" width="24" height="24" viewBox="0 0 24 24">
  <path d="M2,0 L10,0 C11.1045695,-2.02906125e-16 12,0.8954305 12,2 L12,18 C12,19.1045695 11.1045695,20 10,20 L2,20 C0.8954305,20 1.3527075e-16,19.1045695 0,18 L0,2 C-1.3527075e-16,0.8954305 0.8954305,2.02906125e-16 2,0 Z M3,2 C2.44771525,2 2,2.44771525 2,3 L2,16 C2,16.5522847 2.44771525,17 3,17 L9,17 C9.55228475,17 10,16.5522847 10,16 L10,3 C10,2.44771525 9.55228475,2 9,2 L3,2 Z M4.5,18 C4.22385763,18 4,18.2238576 4,18.5 C4,18.7761424 4.22385763,19 4.5,19 L7.5,19 C7.77614237,19 8,18.7761424 8,18.5 C8,18.2238576 7.77614237,18 7.5,18 L4.5,18 Z" transform="translate(6 2)"/>
</svg>
