<svg xmlns="http://www.w3.org/2000/svg" width="24" height="24" viewBox="0 0 24 24">
  <path d="M9,10 C9.55228475,10 10,10.4477153 10,11 C10,11.5128358 9.61395981,11.9355072 9.11662113,11.9932723 L9,12 L1,12 C0.44771525,12 0,11.5522847 0,11 C0,10.4871642 0.38604019,10.0644928 0.883378875,10.0067277 L1,10 L9,10 Z M15,5 C15.5522847,5 16,5.44771525 16,6 C16,6.51283584 15.6139598,6.93550716 15.1166211,6.99327227 L15,7 L1,7 C0.44771525,7 0,6.55228475 0,6 C0,5.48716416 0.38604019,5.06449284 0.883378875,5.00672773 L1,5 L15,5 Z M15,0 C15.5522847,0 16,0.44771525 16,1 C16,1.51283584 15.6139598,1.93550716 15.1166211,1.99327227 L15,2 L1,2 C0.44771525,2 0,1.55228475 0,1 C0,0.487164161 0.38604019,0.0644928393 0.883378875,0.00672773133 L1,0 L15,0 Z" transform="translate(4 6)"/>
</svg>
