<svg xmlns="http://www.w3.org/2000/svg" width="24" height="24" viewBox="0 0 24 24">
  <path d="M15,16 L1,16 C0.44771525,16 6.76353751e-17,15.5522847 0,15 C-6.76353751e-17,14.4477153 0.44771525,14 1,14 C1.55228475,14 2,13.5522847 2,13 L2,8 C2,5.37733614 3.68271203,3.14769073 6.02739671,2.33180314 C6.0093774,2.22388264 6,2.11303643 6,2 C6,0.8954305 6.8954305,0 8,0 C9.1045695,0 10,0.8954305 10,2 C10,2.11303643 9.9906226,2.22388264 9.97260329,2.33180314 C12.317288,3.14769073 14,5.37733614 14,8 L14,13 C14,13.5522847 14.4477153,14 15,14 C15.5522847,14 16,14.4477153 16,15 C16,15.5522847 15.5522847,16 15,16 Z M11,17 C11,18.6568542 9.65685425,20 8,20 C6.34314575,20 5,18.6568542 5,17 L11,17 L11,17 Z" transform="translate(4 2)"/>
</svg>
