<svg xmlns="http://www.w3.org/2000/svg" width="24" height="24" viewBox="0 0 24 24">
  <path d="M16,0 C17.1045695,0 18,0.8954305 18,2 L18,16 C18,17.1045695 17.1045695,18 16,18 L2,18 C0.8954305,18 0,17.1045695 0,16 L0,2 C0,0.8954305 0.8954305,0 2,0 L16,0 Z M6.77549358,11.5575724 L6.77549358,14.3327615 C6.77549358,14.8626908 7.18563918,15.0334986 7.49955928,14.9947355 L9.36808367,14.7223933 L9.36808367,14.7223933 L6.77549358,11.5575724 Z M11.9984142,8.54930449 L11.7364808,9.00495867 L10.8639529,8.99545545 C10.765478,9.9217689 10.0329144,11.1094208 8.17438751,11.3324962 L10.686748,14.529328 L11.4335579,14.4205412 L11.4335579,14.4205412 C11.7757208,14.3690237 11.9861673,14.0226565 11.9861673,13.6637851 L11.9984142,8.54930449 Z M6.77549358,8.95144056 L6.77549358,10.678775 L7.10752282,10.678318 C8.47972028,10.6582654 9.68604903,10.3877692 9.78347794,8.98220097 L6.77549358,8.95144056 Z M6.7694951,7.01428508 L6.77549358,8.43951734 L7.05742181,8.01562391 L9.67825472,8.10165302 C9.3160969,7.07330505 8.10215589,7.09781334 6.7694951,7.01428508 Z M11.9984142,6.8724871 L11.7414796,7.30813451 L10.4743021,7.23385938 L10.5569107,7.3618286 C10.6534787,7.52356852 10.8058844,7.82039118 10.8512062,8.14566791 L11.9984142,8.18568145 L11.9984142,6.8724871 Z M8.04117142,4.44166457 C7.96117095,3.55155088 6.78671294,3.43729086 6.76377285,4.32097397 L6.76749561,4.44191465 L6.76749561,6.50086135 L7.05367277,6.08822172 L11.9984142,6.50086135 C12.0257072,5.84263862 11.6952824,5.67610672 11.4255441,5.63059858 L8.04117142,5.25744061 L8.04117142,4.44166457 Z M7.30485883,2.29018657 C6.44082876,2.29018657 5.92496007,2.98267088 5.89546757,3.02718595 C5.79624283,3.1759863 5.83648259,3.37680425 5.98519473,3.47633793 C6.1182323,3.56551096 6.27091793,3.53819559 6.37147979,3.44557533 L6.48255251,3.31993735 C6.6070677,3.19130398 6.90183642,2.94053163 7.30485883,2.9401565 C7.94844502,2.93965633 8.32010042,3.40456364 8.3268487,3.41206618 C8.44506861,3.54661171 8.64826689,3.56286721 8.76998591,3.45583099 C8.88545652,3.35422518 8.92049862,3.18904684 8.85386397,3.05888326 L8.81197522,2.99717579 C8.77523457,2.95516158 8.26536435,2.29018657 7.30485883,2.29018657 Z M7.2908624,1 C5.85572769,1 5.08392414,2.09737132 5.05443165,2.14188638 C4.9552069,2.29093682 4.99544666,2.49175477 5.14415881,2.59128845 C5.27719637,2.68024712 5.42969837,2.65308487 5.53036517,2.56035524 L5.67824818,2.38529823 C5.8938979,2.14763574 6.44607742,1.64996993 7.2908624,1.64996993 C8.40382911,1.64996993 9.14189124,2.51451247 9.14838959,2.52201501 C9.2666095,2.65656054 9.45631121,2.68457001 9.5915268,2.56577982 C9.72649244,2.44773988 9.75148608,2.24217032 9.63351611,2.10712462 L9.59733757,2.06591568 C9.41427691,1.86273943 8.56898707,1 7.2908624,1 Z" transform="translate(3 3)"/>
</svg>
