<svg xmlns="http://www.w3.org/2000/svg" width="24" height="24" viewBox="0 0 24 24">
  <path d="M3.82730909,11 L5.07730909,7 L3,7 C2.44771525,7 2,6.55228475 2,6 C2,5.44771525 2.44771525,5 3,5 L5.70230909,5 L7.04552002,0.701725007 C7.21025275,0.174580271 7.77113026,-0.119212708 8.29827499,0.045520022 C8.82541973,0.210252752 9.11921271,0.771130257 8.95447998,1.29827499 L7.79769091,5 L12.7023091,5 L14.04552,0.701725007 C14.2102528,0.174580271 14.7711303,-0.119212708 15.298275,0.045520022 C15.8254197,0.210252752 16.1192127,0.771130257 15.95448,1.29827499 L14.7976909,5 L17,5 C17.5522847,5 18,5.44771525 18,6 C18,6.55228475 17.5522847,7 17,7 L14.1726909,7 L12.9226909,11 L15,11 C15.5522847,11 16,11.4477153 16,12 C16,12.5522847 15.5522847,13 15,13 L12.2976909,13 L10.95448,17.298275 C10.7897472,17.8254197 10.2288697,18.1192127 9.70172501,17.95448 C9.17458027,17.7897472 8.88078729,17.2288697 9.04552002,16.701725 L10.2023091,13 L5.29769091,13 L3.95447998,17.298275 C3.78974725,17.8254197 3.22886974,18.1192127 2.70172501,17.95448 C2.17458027,17.7897472 1.88078729,17.2288697 2.04552002,16.701725 L3.20230909,13 L1,13 C0.44771525,13 0,12.5522847 0,12 C0,11.4477153 0.44771525,11 1,11 L3.82730909,11 Z M5.92269091,11 L10.8273091,11 L12.0773091,7 L7.17269091,7 L5.92269091,11 Z" transform="translate(3 3)"/>
</svg>
