<svg xmlns="http://www.w3.org/2000/svg" width="24" height="24" viewBox="0 0 24 24">
  <path d="M14.7207106,19.9806544 C6.77967124,19.5875263 0.411846645,13.2193987 0.019198283,5.27823307 C0.0065422956,5.18730248 0,5.09441526 0,5 L0,2 C-2.22044605e-16,0.8954305 0.8954305,0 2,0 L4,0 C5.1045695,-2.22044605e-16 6,0.8954305 6,2 L6,5 C6,6.06902773 5.161267,6.94215887 4.10595285,6.99724158 C4.76282963,11.5979632 8.40202666,15.2371304 13.0027629,15.8939621 C13.0578881,14.8386879 13.931001,14 15,14 L18,14 C19.1045695,14 20,14.8954305 20,16 L20,18 C20,19.1045695 19.1045695,20 18,20 L15,20 C14.9052191,20 14.8119781,19.9934069 14.7207106,19.9806544 L14.7207106,19.9806544 Z" transform="translate(2 2)"/>
</svg>
