<svg xmlns="http://www.w3.org/2000/svg" width="24" height="24" viewBox="0 0 24 24">
  <path fill-rule="evenodd" d="M11.1986353,9.09426472 L16,13.8937933 L16,9.29318223 L13.8537,7.1462 C13.6577,6.9512 13.3427,6.9512 13.1467,7.1462 L11.1986353,9.09426472 L11.1986353,9.09426472 Z M6.76360878,6.07487746 C6.5705705,5.95513839 6.31484531,5.97891257 6.1467,6.1462 L2,9.60164906 L2,15 C2,15.5522847 2.44771525,16 3,16 L15,16 C15.4584796,16 15.8448951,15.6914569 15.9629333,15.2706839 L6.76360878,6.07487746 L6.76360878,6.07487746 Z M3,0 L15,0 C16.6568542,-2.22044605e-16 18,1.34314575 18,3 L18,15 C18,16.6568542 16.6568542,18 15,18 L3,18 C1.34314575,18 2.22044605e-16,16.6568542 0,15 L0,3 C-2.22044605e-16,1.34314575 1.34314575,3.33066907e-16 3,0 Z M12,4 C12.5522847,4 13,3.55228475 13,3 C13,2.44771525 12.5522847,2 12,2 C11.4477153,2 11,2.44771525 11,3 C11,3.55228475 11.4477153,4 12,4 Z" transform="translate(3 3)"/>
</svg>
