<svg xmlns="http://www.w3.org/2000/svg" width="24" height="24" viewBox="0 0 24 24">
  <path d="M18.5,0 C19.2796961,0 19.9204487,0.594888083 19.9931334,1.35553999 L20,1.5 L20,8.5 C20,9.27969612 19.4051119,9.92044868 18.64446,9.99313342 L18.5,10 L1.5,10 C0.720303883,10 0.0795513218,9.40511192 0.00686657806,8.64446001 L0,8.5 L0,1.5 C0,0.720303883 0.594888083,0.0795513218 1.35553999,0.00686657806 L1.5,0 L18.5,0 Z M17.5,2 L15.5,2 C15.2238576,2 15,2.22385763 15,2.5 C15,2.74545989 15.1768752,2.94960837 15.4101244,2.99194433 L15.5,3 L16,3 L16,7 L15.5,7 C15.2238576,7 15,7.22385763 15,7.5 C15,7.74545989 15.1768752,7.94960837 15.4101244,7.99194433 L15.5,8 L17.5,8 C17.7761424,8 18,7.77614237 18,7.5 C18,7.25454011 17.8231248,7.05039163 17.5898756,7.00805567 L17.5,7 L17,7 L17,3 L17.5,3 C17.7761424,3 18,2.77614237 18,2.5 C18,2.25454011 17.8231248,2.05039163 17.5898756,2.00805567 L17.5,2 Z M4,4 C3.44771525,4 3,4.44771525 3,5 C3,5.55228475 3.44771525,6 4,6 C4.55228475,6 5,5.55228475 5,5 C5,4.44771525 4.55228475,4 4,4 Z M8,4 C7.44771525,4 7,4.44771525 7,5 C7,5.55228475 7.44771525,6 8,6 C8.55228475,6 9,5.55228475 9,5 C9,4.44771525 8.55228475,4 8,4 Z M12,4 C11.4477153,4 11,4.44771525 11,5 C11,5.55228475 11.4477153,6 12,6 C12.5522847,6 13,5.55228475 13,5 C13,4.44771525 12.5522847,4 12,4 Z" transform="translate(2 7)"/>
</svg>
