<svg xmlns="http://www.w3.org/2000/svg" width="24" height="24" viewBox="0 0 24 24">
  <path fill-rule="evenodd" d="M17,14 L17,10 L3,10 L3,14 L2,14 C0.8954305,14 0,13.1045695 0,12 L0,6 C0,4.8954305 0.8954305,4 2,4 L18,4 C19.1045695,4 20,4.8954305 20,6 L20,12 C20,13.1045695 19.1045695,14 18,14 L17,14 Z M15,6 C14.4477153,6 14,6.44771525 14,7 C14,7.55228475 14.4477153,8 15,8 C15.5522847,8 16,7.55228475 16,7 C16,6.44771525 15.5522847,6 15,6 Z M4,11 L16,11 L16,17 C16,17.5522847 15.5522847,18 15,18 L5,18 C4.44771525,18 4,17.5522847 4,17 L4,11 Z M5,0 L15,0 C15.5522847,0 16,0.44771525 16,1 L16,3 L4,3 L4,1 C4,0.44771525 4.44771525,0 5,0 Z" transform="translate(2 3)"/>
</svg>
