<svg xmlns="http://www.w3.org/2000/svg" width="24" height="24" viewBox="0 0 24 24">
  <path d="M18,4.01368581 L18,1.00040091 C18,0.448116161 18.4477153,0.000400911175 19,0.000400911175 C19.5522847,0.000400911175 20,0.448116161 20,1.00040091 L20,7 C20,7.55228475 19.5522847,8 19,8 L13,8 C12.4477153,8 12,7.55228475 12,7 C12,6.44771525 12.4477153,6 13,6 L16.9180705,6 C15.5058787,3.55676511 12.89512,2 10,2 C5.58164729,2 2,5.58192219 2,10 C2,14.4187153 5.58128475,18 10,18 C14.0806644,18 17.4960304,14.928348 17.9492289,10.9071303 C18.0110809,10.35832 18.5061204,9.96356217 19.0549308,10.0254141 C19.6037411,10.087266 19.9984989,10.5823056 19.936647,11.1311159 C19.3697565,16.1611193 15.1013099,20 10,20 C4.47671525,20 -2.27373675e-13,15.5232847 -2.27373675e-13,10 C-2.27373675e-13,4.47738705 4.47704343,5.68434189e-14 10,5.68434189e-14 C13.2139373,5.68434189e-14 16.1476066,1.53422079 18,4.01368581 L18,4.01368581 Z" transform="translate(2 2)"/>
</svg>
