<svg xmlns="http://www.w3.org/2000/svg" width="24" height="24" viewBox="0 0 24 24">
  <path d="M3.06992246,14 C4.4841806,16.4471042 7.10315809,18 10,18 C14.05751,18 17.4600524,14.9625213 17.9419115,10.9698264 C18.0080839,10.4215203 18.5062172,10.0306736 19.0545234,10.0968461 C19.6028296,10.1630185 19.9936762,10.6611518 19.9275038,11.209458 C19.3247557,16.203842 15.072351,20 10,20 C6.79255692,20 3.85674247,18.4760387 2,16.0021587 L2,19.0004009 C2,19.5526857 1.55228475,20.0004009 1,20.0004009 C0.44771525,20.0004009 4.4408921e-14,19.5526857 4.4408921e-14,19.0004009 L4.4408921e-14,13 C4.4408921e-14,12.4477153 0.44771525,12 1,12 L7,12 C7.55228475,12 8,12.4477153 8,13 C8,13.5522847 7.55228475,14 7,14 L3.06992246,14 L3.06992246,14 Z M16.9301514,6 C15.5175057,3.55518813 12.8987617,2 10,2 C5.91320012,2 2.49483459,5.08041585 2.04898801,9.10884602 C1.98823483,9.65777907 1.49398649,10.0535271 0.945053436,9.99277388 C0.396120383,9.9320207 0.000372399359,9.43777236 0.0611255745,8.88883931 C0.618814463,3.84986211 4.89104152,2.84217094e-14 10,2.84217094e-14 C13.2092122,2.84217094e-14 16.1445795,1.52573819 18,3.99769383 L18,1.00040091 C18,0.448116161 18.4477153,0.000400911175 19,0.000400911175 C19.5522847,0.000400911175 20,0.448116161 20,1.00040091 L20,7 C20,7.55228475 19.5522847,8 19,8 L13,8 C12.4477153,8 12,7.55228475 12,7 C12,6.44771525 12.4477153,6 13,6 L16.9301514,6 Z" transform="translate(2 2)"/>
</svg>
