<svg xmlns="http://www.w3.org/2000/svg" width="24" height="24" viewBox="0 0 24 24">
  <path d="M9.74283789,2 C10.2210377,2.57903206 10.5829929,3.25761066 10.7929675,4 L15,4 C15.5522847,4 16,4.44771525 16,5 C16,5.55228475 15.5522847,6 15,6 L10.9775785,6 C10.7249641,8.80325001 8.36902128,11 5.5,11 L4.41421356,11 L11.7071068,18.2928932 C12.0976311,18.6834175 12.0976311,19.3165825 11.7071068,19.7071068 C11.3165825,20.0976311 10.6834175,20.0976311 10.2928932,19.7071068 L1.29289322,10.7071068 C0.902368927,10.3165825 0.902368927,9.68341751 1.29289322,9.29289322 C1.48815536,9.09763107 1.74407768,9 2,9 L5.5,9 C7.26323595,9 8.72194074,7.69614707 8.96455557,6 L1,6 C0.44771525,6 0,5.55228475 0,5 C0,4.44771525 0.44771525,4 1,4 L8.66318442,4 C8.10145245,2.81752633 6.89619798,2 5.5,2 L1,2 C0.44771525,2 0,1.55228475 0,1 C0,0.44771525 0.44771525,0 1,0 L15,0 C15.5522847,0 16,0.44771525 16,1 C16,1.55228475 15.5522847,2 15,2 L9.74283789,2 L9.74283789,2 Z" transform="translate(4 2)"/>
</svg>
