<svg xmlns="http://www.w3.org/2000/svg" width="24" height="24" viewBox="0 0 24 24">
  <path d="M14.3198441,12.905661 L19.7071244,18.2932098 C20.097639,18.6837439 20.0976232,19.3169088 19.7070892,19.7074234 C19.3165551,20.097938 18.6833902,20.0979222 18.2928756,19.7073882 L12.9056267,14.3198708 C11.5509458,15.3729237 9.84870364,16 8,16 C3.581722,16 0,12.418278 0,8 C0,3.581722 3.581722,0 8,0 C12.418278,0 16,3.581722 16,8 C16,9.84871927 15.3729131,11.5509745 14.3198441,12.905661 L14.3198441,12.905661 Z M8,14 C11.3137085,14 14,11.3137085 14,8 C14,4.6862915 11.3137085,2 8,2 C4.6862915,2 2,4.6862915 2,8 C2,11.3137085 4.6862915,14 8,14 Z" transform="translate(2 2)"/>
</svg>
