<svg xmlns="http://www.w3.org/2000/svg" width="24" height="24" viewBox="0 0 24 24">
  <path fill-rule="evenodd" d="M1.43977467,0.101641152 C2.1091636,0.433888382 16.8052436,7.76997365 17.4539905,8.10899348 C18.1027374,8.44801331 18.2556458,9.47918701 17.4539905,9.89100652 C16.6523352,10.302826 2.41886902,17.429772 1.5,17.8658946 C0.581130981,18.3020172 1.81096457e-14,17.5559692 1.60184366e-14,17 C1.39523809e-14,16.4440308 -0.00672773133,12.2995453 1.60184366e-14,11.5 C0.00672773133,10.7004547 0.608810425,10.0559387 1.38935852,10.0050049 C2.16990662,9.95407104 9.86843872,9.54060364 10.5,9.5 C11.1315613,9.45939636 11.188324,8.54675293 10.5,8.5 C10.0411174,8.46883138 6.99296401,8.29987585 1.35553999,7.99313342 C0.642428827,7.92499147 1.58918018e-14,7.32748413 1.60184366e-14,6.5 C1.61389999e-14,5.67251587 3.97919545e-14,1.71983337 1.60184366e-14,1 C-7.64752844e-15,0.280166626 0.770385742,-0.230606079 1.43977467,0.101641152 Z" transform="translate(3 3)"/>
</svg>
